<?xml version="1.0" encoding="UTF-8"?>
<svg class="svg-inline--fa fa-exclamation-circle fa-w-16" aria-hidden="true" data-icon="exclamation-circle" data-prefix="fas" focusable="false" role="img" version="1.1" viewBox="0 0 512 512" xmlns="http://www.w3.org/2000/svg">
 <path d="m504 256c0 137-111.04 248-248 248s-248-111-248-248c0-136.92 111.04-248 248-248s248 111.08 248 248zm-248 50c-25.405 0-46 20.595-46 46s20.595 46 46 46 46-20.595 46-46-20.595-46-46-46zm-43.673-165.35 7.418 136c0.347 6.364 5.609 11.346 11.982 11.346h48.546c6.373 0 11.635-4.982 11.982-11.346l7.418-136c0.375-6.874-5.098-12.654-11.982-12.654h-63.383c-6.884 0-12.356 5.78-11.981 12.654z" fill="currentColor"/>
</svg>
