<svg width="256" height="256" viewBox="0 0 256 256" fill="none" xmlns="http://www.w3.org/2000/svg">
<g clip-path="url(#clip0)">
<circle cx="127.998" cy="127.946" r="128.002" fill="#EDF0F2"/>
<path d="M209.259 226.845C189.699 242.917 165.812 252.828 140.619 255.324C106.836 258.671 73.1073 248.461 46.8525 226.939C20.5977 205.418 3.96753 174.349 0.620392 140.566C-1.87568 115.373 3.15488 90.0056 15.0759 67.6717C26.997 45.3377 45.2731 27.0404 67.5932 15.0933C89.9133 3.14633 115.275 -1.91371 140.471 0.553076C165.667 3.01987 189.565 12.9027 209.144 28.9518L183.325 60.4499C169.976 49.5073 153.681 42.769 136.502 41.0871C119.323 39.4052 102.031 42.8552 86.813 51.0009C71.5948 59.1466 59.1338 71.6221 51.0058 86.8497C42.8778 102.077 39.4479 119.373 41.1498 136.55C43.4319 159.584 54.7706 180.768 72.6716 195.441C90.5726 210.115 113.569 217.076 136.603 214.794C153.78 213.092 170.067 206.335 183.404 195.377L209.259 226.845Z" fill="url(#paint0_linear)"/>
<path d="M127.998 240.553C190.19 240.553 240.606 190.137 240.606 127.946C240.606 65.7542 190.19 15.3382 127.998 15.3382C65.807 15.3382 15.391 65.7542 15.391 127.946C15.391 190.137 65.807 240.553 127.998 240.553Z" fill="white"/>
<path d="M145.875 136.778C145.875 127.018 139.828 123.727 128.131 122.151C119.487 120.924 117.826 118.931 117.826 114.971C117.826 111.011 120.75 108.543 126.343 108.543C131.439 108.543 134.377 110.286 135.584 114.315C135.712 114.757 135.981 115.145 136.352 115.424C136.723 115.703 137.175 115.857 137.642 115.863H142.113C142.405 115.869 142.695 115.812 142.962 115.695C143.229 115.579 143.466 115.406 143.657 115.189C143.849 114.972 143.989 114.716 144.068 114.44C144.147 114.163 144.163 113.873 144.115 113.59C142.695 107.218 138.323 103.384 131.467 102.185V95.4645C131.467 94.9098 131.243 94.3778 130.843 93.9856C130.444 93.5934 129.903 93.373 129.338 93.373H125.079C124.515 93.373 123.973 93.5934 123.574 93.9856C123.175 94.3778 122.95 94.9098 122.95 95.4645V101.948C114.433 103.119 109.054 108.641 109.054 115.724C109.054 124.884 114.731 128.44 126.598 130.015C134.675 131.312 136.975 133.027 136.975 137.531C136.975 142.034 133.071 145.06 127.564 145.06C120.14 145.06 117.627 141.867 116.79 137.726C116.692 137.251 116.432 136.823 116.052 136.513C115.673 136.204 115.196 136.031 114.703 136.025H109.848C109.559 136.023 109.272 136.083 109.009 136.202C108.745 136.32 108.511 136.494 108.324 136.71C108.136 136.927 107.998 137.181 107.921 137.455C107.843 137.729 107.828 138.017 107.875 138.298C109.11 145.269 113.667 150.372 122.95 151.599V158.208C122.95 158.763 123.175 159.295 123.574 159.687C123.973 160.079 124.515 160.3 125.079 160.3H129.338C129.903 160.3 130.444 160.079 130.843 159.687C131.243 159.295 131.467 158.763 131.467 158.208V151.599C140.268 150.233 145.875 144.265 145.875 136.778Z" fill="#283947"/>
<path d="M113.633 166.817C105.517 163.881 98.509 158.543 93.5573 151.528C88.6056 144.513 85.9499 136.159 85.9499 127.598C85.9499 119.037 88.6056 110.683 93.5573 103.667C98.509 96.6522 105.517 91.3148 113.633 88.3783C114.153 88.152 114.599 87.7854 114.919 87.3204C115.239 86.8554 115.421 86.3105 115.444 85.7479V81.851C115.478 81.5059 115.42 81.1581 115.275 80.8425C115.13 80.5269 114.904 80.2546 114.619 80.053C114.335 79.8513 114.001 79.7274 113.653 79.6937C113.305 79.66 112.954 79.7176 112.635 79.8608C102.416 83.0885 93.4965 89.453 87.1674 98.0342C80.8383 106.616 77.4271 116.969 77.4271 127.598C77.4271 138.226 80.8383 148.58 87.1674 157.161C93.4965 165.742 102.416 172.107 112.635 175.335C112.954 175.478 113.305 175.535 113.653 175.502C114.001 175.468 114.335 175.344 114.619 175.142C114.904 174.941 115.13 174.668 115.275 174.353C115.42 174.037 115.478 173.689 115.444 173.344V169.447C115.421 168.885 115.239 168.34 114.919 167.875C114.599 167.41 114.153 167.043 113.633 166.817V166.817Z" fill="#657786"/>
<path d="M142.609 79.8608C142.29 79.7176 141.939 79.66 141.591 79.6937C141.243 79.7274 140.91 79.8513 140.625 80.053C140.34 80.2546 140.114 80.5269 139.969 80.8425C139.825 81.1581 139.766 81.5059 139.8 81.851V85.7479C139.823 86.3105 140.005 86.8554 140.325 87.3204C140.646 87.7854 141.091 88.152 141.612 88.3783C149.727 91.3148 156.735 96.6522 161.687 103.667C166.639 110.683 169.294 119.037 169.294 127.598C169.294 136.159 166.639 144.513 161.687 151.528C156.735 158.543 149.727 163.881 141.612 166.817C141.074 167.019 140.613 167.38 140.289 167.85C139.965 168.321 139.794 168.878 139.8 169.447V173.344C139.766 173.689 139.825 174.037 139.969 174.353C140.114 174.668 140.34 174.941 140.625 175.142C140.91 175.344 141.243 175.468 141.591 175.502C141.939 175.535 142.29 175.478 142.609 175.335C152.829 172.107 161.748 165.742 168.077 157.161C174.406 148.58 177.817 138.226 177.817 127.598C177.817 116.969 174.406 106.616 168.077 98.0342C161.748 89.453 152.829 83.0885 142.609 79.8608V79.8608Z" fill="#657786"/>
</g>
<defs>
<linearGradient id="paint0_linear" x1="95.998" y1="13.2772" x2="136.136" y2="235.812" gradientUnits="userSpaceOnUse">
<stop stop-color="#27D3A2"/>
<stop offset="1" stop-color="#9388FD"/>
</linearGradient>
<clipPath id="clip0">
<rect width="256" height="256" fill="white"/>
</clipPath>
</defs>
</svg>
