<svg xmlns="http://www.w3.org/2000/svg" viewBox="0 0 70.4 70.4"><defs><style>.cls-1{fill:#87888c;}</style></defs><title>renBTC</title><g id="Layer_2" data-name="Layer 2"><g id="Layer_1-2" data-name="Layer 1"><g id="All"><g id="Artboard"><path id="Fill-1-Copy-3-Copy" class="cls-1" d="M42.66,30.12c-1.08,4.36-7.81,2.14-10,1.6L34.6,24c2.18.54,9.2,1.56,8.06,6.11M41.47,42.56c-1.19,4.8-9.27,2.2-11.89,1.55l2.12-8.5c2.62.65,11,2,9.77,7m8.82-12.37C51,25.5,47.43,23,42.55,21.3L44.13,15l-3.86-1-1.54,6.17c-1-.25-2.06-.49-3.09-.72l1.55-6.22-3.86-1-1.59,6.34c-.84-.19-1.66-.38-2.46-.58v0L24,16.68l-1,4.12s2.86.66,2.8.7a2.05,2.05,0,0,1,1.8,2.25L25.73,31a2.16,2.16,0,0,1,.4.12l-.41-.1L23.2,41.13a1.41,1.41,0,0,1-1.77.92c0,.05-2.81-.71-2.81-.71L16.7,45.77l5,1.25c.94.23,1.85.48,2.75.71l-1.59,6.42,3.85,1,1.59-6.35c1,.28,2.05.54,3.07.8l-1.57,6.32,3.86,1,1.6-6.41c6.58,1.25,11.54.75,13.62-5.21,1.68-4.79-.08-7.56-3.55-9.36,2.53-.59,4.43-2.25,4.93-5.67m20.11,5A35.2,35.2,0,1,1,35.2,0,35.2,35.2,0,0,1,70.4,35.2"/></g></g></g></g></svg>