<?xml version="1.0" encoding="UTF-8"?>
<svg width="60" height="59.34" version="1.1" viewBox="0 0 60 59.34" xmlns="http://www.w3.org/2000/svg" xmlns:xlink="http://www.w3.org/1999/xlink">
 <defs>
  <path id="a" d="m2.35 0.547v4.719c0 0.658 0.126 1.154 0.378 1.487s0.65 0.5 1.192 0.5c0.543 0 0.942-0.167 1.198-0.5s0.384-0.829 0.384-1.487v-4.719h1.72v4.626c0 1.162-0.281 2.049-0.843 2.66-0.562 0.613-1.381 0.92-2.459 0.92-1.077 0-1.895-0.307-2.453-0.92-0.557-0.61-0.837-1.497-0.837-2.659v-4.627zm7.554 5.486c0.03 0.402 0.193 0.726 0.487 0.97s0.686 0.366 1.175 0.366c0.405 0 0.736-0.087 0.992-0.261a0.831 0.831 0 0 0 0.384-0.727c0-0.217-0.071-0.39-0.212-0.517-0.142-0.128-0.34-0.229-0.596-0.302a16.77 16.77 0 0 0-1.187-0.273c-0.527-0.101-0.97-0.23-1.33-0.39a2.11 2.11 0 0 1-0.877-0.709c-0.225-0.313-0.338-0.73-0.338-1.249 0-0.473 0.128-0.895 0.384-1.267a2.598 2.598 0 0 1 1.066-0.877c0.455-0.213 0.969-0.32 1.542-0.32 0.589 0 1.118 0.11 1.588 0.331s0.84 0.525 1.112 0.913a2.3 2.3 0 0 1 0.418 1.313h-1.685a1.235 1.235 0 0 0-0.436-0.842c-0.252-0.214-0.584-0.32-0.997-0.32-0.382 0-0.688 0.081-0.917 0.244-0.23 0.163-0.344 0.395-0.344 0.697 0 0.217 0.069 0.386 0.207 0.506 0.137 0.12 0.332 0.217 0.584 0.29 0.252 0.074 0.642 0.161 1.17 0.262 0.534 0.1 0.985 0.226 1.352 0.378 0.367 0.15 0.663 0.38 0.888 0.685 0.226 0.306 0.339 0.715 0.339 1.226 0 0.496-0.134 0.94-0.402 1.331-0.267 0.391-0.64 0.7-1.117 0.924a3.738 3.738 0 0 1-1.61 0.337c-0.643 0-1.214-0.118-1.715-0.354a2.849 2.849 0 0 1-1.174-0.982 2.524 2.524 0 0 1-0.436-1.407zm5.8-5.486h2.786c0.802 0 1.51 0.172 2.126 0.517a3.56 3.56 0 0 1 1.422 1.441c0.332 0.616 0.498 1.32 0.498 2.11s-0.166 1.493-0.498 2.11a3.56 3.56 0 0 1-1.422 1.44c-0.615 0.345-1.324 0.517-2.126 0.517h-2.786zm2.786 6.683c0.726 0 1.29-0.239 1.69-0.715 0.402-0.477 0.602-1.11 0.602-1.9s-0.2-1.424-0.601-1.9c-0.402-0.478-0.965-0.715-1.691-0.715h-1.066v5.23z"/>
 </defs>
 <g transform="translate(0 -.459)" fill="none" fill-rule="evenodd">
  <ellipse cx="30" cy="30.129" rx="30" ry="29.67" fill="#1e1a31"/>
  <g fill="#fff">
   <path d="m25.69 28.178c0.803 0 1.455 0.66 1.455 1.476 0 0.815-0.652 1.476-1.456 1.476h-3.778c-3.659 0-6.625-3.008-6.625-6.718s2.966-6.717 6.625-6.717h9.744c0.804 0 1.455 0.66 1.455 1.475s-0.651 1.476-1.455 1.476h-9.745c-2.051 0-3.714 1.686-3.714 3.766s1.663 3.766 3.714 3.766h3.778z"/>
   <path d="m22.707 31.13c-0.804 0-1.456-0.661-1.456-1.476s0.652-1.476 1.456-1.476h3.778c3.659 0 6.625 3.008 6.625 6.718s-2.966 6.717-6.625 6.717h-9.745c-0.804 0-1.455-0.66-1.455-1.476 0-0.815 0.651-1.475 1.455-1.475h9.744c2.051 0 3.714-1.686 3.714-3.766s-1.663-3.766-3.714-3.766h-3.778z"/>
   <path d="m17.892 41.017-2.367-1.719 14.883-21.058 2.367 1.72z" fill-opacity=".5"/>
  </g>
  <g transform="rotate(-90,38.02,3.112)">
   <use width="100%" height="100%" fill="#000000" xlink:href="#a"/>
   <use width="100%" height="100%" fill="#ffffff" xlink:href="#a"/>
  </g>
 </g>
</svg>
