<svg xmlns="http://www.w3.org/2000/svg" width="42" height="42" viewBox="0 0 42 42">
  <g fill="none" fill-rule="evenodd">
    <circle cx="21" cy="21" r="21" fill="#CAD2E0"/>
    <g fill="#21252E" fill-rule="nonzero" opacity=".799" transform="rotate(-.583 1051.666 -980.746)">
      <path d="M17.9699082,7.29243112 C16.8978939,7.29243112 15.9425193,7.78974308 15.3202559,8.56577138 C15.3238576,8.56115381 15.3266282,8.55625919 15.3303222,8.55164162 C15.0094013,8.87533306 14.5645449,9.07647428 14.0733282,9.07647428 C13.0971745,9.07647428 12.3064624,8.28502331 12.3064624,7.30960847 C12.3064624,6.70350663 12.6108524,6.17017765 13.0750102,5.85073437 C13.068638,5.84787148 13.0615269,5.84362331 13.0558011,5.84076042 C13.0479513,5.84842558 13.0398243,5.85489018 13.0317898,5.86218593 C13.6797268,5.24370902 14.0839486,4.37209708 14.0839486,3.40517856 C14.0839486,1.52989228 12.5638455,0.00969689057 10.6879128,0.00969689057 C8.81271886,0.00969689057 7.29187701,1.52989228 7.29187701,3.40517856 C7.29187701,4.46518723 7.77727565,5.41123435 8.53751187,6.03405178 C8.87219312,6.3562656 9.0815536,6.80804835 9.0815536,7.30970082 C9.0815536,8.28511566 8.29010263,9.07656663 7.31468779,9.07656663 C6.75282224,9.07656663 6.25227799,8.81410413 5.92858655,8.40489534 C5.92710892,8.40775824 5.92646247,8.40923586 5.92572365,8.41071348 C5.93486644,8.42077978 5.9427163,8.43112313 5.95112027,8.44137412 C5.3287646,7.73719517 4.41938097,7.29270817 3.40582502,7.29270817 C1.53063109,7.29270817 0.0090504312,8.81281121 0.0090504312,10.6880975 C0.0090504312,12.5633838 1.53072344,14.0848721 3.40582502,14.0848721 C4.49741785,14.0848721 5.46830747,13.5687205 6.08964728,12.767942 C6.08456796,12.774776 6.08013509,12.7817023 6.07477872,12.7886287 C6.39348319,12.4749112 6.83122853,12.2809734 7.31468779,12.2809734 C8.29010263,12.2809734 9.0815536,13.0724244 9.0815536,14.0478392 C9.0815536,14.6254045 8.80348372,15.1387856 8.37497351,15.4610917 C8.38005283,15.4638623 8.38568627,15.4668175 8.3913197,15.4695881 C7.7156773,16.0905585 7.29187701,16.9812871 7.29187701,17.9709241 C7.29187701,19.846118 8.81281121,21.3663134 10.6879128,21.3663134 C12.5638455,21.3663134 14.0839486,19.846118 14.0839486,17.9709241 C14.0839486,16.9714979 13.6520214,16.0726423 12.9647427,15.4510254 C12.9717614,15.4467773 12.9788725,15.4440067 12.9852447,15.4396662 C12.5716954,15.1159748 12.3064624,14.61266 12.3064624,14.0479316 C12.3064624,13.0725167 13.0971745,12.2810657 14.0733282,12.2810657 C14.5346231,12.2810657 14.9538982,12.4579186 15.2682621,12.7459624 C15.265861,12.7427301 15.264014,12.7394978 15.2617052,12.7362655 C15.8815674,13.5553295 16.8638162,14.0849644 17.9699082,14.0849644 C19.8451945,14.0849644 21.3666828,12.5633838 21.3666828,10.6881898 C21.3666828,8.81299591 19.8451021,7.29243112 17.9699082,7.29243112 Z M3.40573267,12.7070825 C2.29068261,12.7070825 1.386563,11.8029629 1.386563,10.6878204 C1.386563,9.57267802 2.29068261,8.66994369 3.40573267,8.66994369 C4.52022863,8.66994369 5.42425588,9.57258567 5.42425588,10.6878204 C5.42425588,11.8030552 4.52032098,12.7070825 3.40573267,12.7070825 Z M10.6878204,1.38730181 C11.802224,1.38730181 12.7063437,2.29132907 12.7063437,3.40517856 C12.7063437,4.52022863 11.802224,5.42434824 10.6878204,5.42434824 C9.57341683,5.42434824 8.66929723,4.52022863 8.66929723,3.40517856 C8.66929723,2.29132907 9.57341683,1.38730181 10.6878204,1.38730181 Z M10.6878204,19.9884314 C9.57341683,19.9884314 8.66929723,19.0843118 8.66929723,17.9705547 C8.66929723,16.8554123 9.57341683,15.9512926 10.6878204,15.9512926 C11.802224,15.9512926 12.7063437,16.8554123 12.7063437,17.9705547 C12.7063437,19.0843118 11.802224,19.9884314 10.6878204,19.9884314 Z M17.9699082,12.7070825 C16.8555046,12.7070825 15.9520315,11.8029629 15.9520315,10.6878204 C15.9520315,9.57267802 16.8554123,8.66994369 17.9699082,8.66994369 C19.0850506,8.66994369 19.9891702,9.57258567 19.9891702,10.6878204 C19.9891702,11.8030552 19.0850506,12.7070825 17.9699082,12.7070825 Z"/>
      <path d="M9.31381722,3.40517856 C9.31381722,2.64651232 9.92915419,2.03191416 10.6878204,2.03191416 C11.4472255,2.03191416 12.0618237,2.64651232 12.0618237,3.40517856 C12.0618237,4.16513773 11.4472255,4.77982824 10.6878204,4.77982824 C9.92915419,4.77973589 9.31381722,4.16513773 9.31381722,3.40517856 Z M3.40573267,9.31455603 C2.64715878,9.31455603 2.03108299,9.92915419 2.03108299,10.6878204 C2.03108299,11.4464867 2.64715878,12.0625625 3.40573267,12.0625625 C4.16439892,12.0625625 4.77973589,11.4464867 4.77973589,10.6878204 C4.77973589,9.92915419 4.16439892,9.31455603 3.40573267,9.31455603 Z M10.6878204,16.595905 C9.92915419,16.595905 9.31381722,17.2119808 9.31381722,17.970647 C9.31381722,18.7293133 9.92915419,19.3439114 10.6878204,19.3439114 C11.4472255,19.3439114 12.0618237,18.7293133 12.0618237,17.970647 C12.0618237,17.2119808 11.4472255,16.595905 10.6878204,16.595905 Z M17.9699082,9.31455603 C17.211242,9.31455603 16.595905,9.92915419 16.595905,10.6878204 C16.595905,11.4464867 17.211242,12.0625625 17.9699082,12.0625625 C18.7285745,12.0625625 19.3446502,11.4464867 19.3446502,10.6878204 C19.3446502,9.92915419 18.7284821,9.31455603 17.9699082,9.31455603 Z"/>
    </g>
  </g>
</svg>
