<?xml version="1.0" encoding="utf-8"?>
<!-- Generator: Adobe Illustrator 23.0.3, SVG Export Plug-In . SVG Version: 6.00 Build 0)  -->
<svg version="1.1" id="Layer_1" xmlns="http://www.w3.org/2000/svg" xmlns:xlink="http://www.w3.org/1999/xlink" x="0px" y="0px"
	 viewBox="0 0 841.9 595.3" style="enable-background:new 0 0 841.9 595.3;" xml:space="preserve">
<style type="text/css">
	.st0{fill:#112857;}
	.st1{fill:#1D97FF;}
</style>
<g>
	<path class="st0" d="M278.1,325c0.9-0.8,2.3-0.8,3.2,0.1c2.3,2.5,7.2,6.7,14.5,6.7c5.3,0,11.3-2.3,11.3-6.5c0-4.5-3.9-6.8-11.9-8.4
		c-11.2-2.3-19.2-6.7-19.2-16.6c0-7.6,7.6-15.1,19.3-15.1c8.7,0,14.8,4,17.6,6.3c1,0.8,1.1,2.4,0.2,3.3l-3.1,3.2
		c-0.8,0.8-2.1,0.9-3,0.2c-2.1-1.7-6.2-4.4-11.6-4.4c-6.7,0-10,3.3-10,6.7c0,4,4.1,6.1,12.7,7.9c10,2.2,18.5,5.9,18.5,16.6
		c0,10.1-10.7,15.3-20.8,15.3c-11.1,0-18.2-6.2-21-9.3c-0.8-0.9-0.8-2.3,0.1-3.2L278.1,325z"/>
	<path class="st0" d="M375.7,313.2c0,1,0,1.8-0.1,3.1h-42.3c0.6,7.9,8.2,15.3,18,15.3c7.2,0,12-3.7,14.3-6c0.9-0.9,2.3-0.9,3.2,0
		l2.9,3c0.9,0.9,0.8,2.3,0,3.1c-2.9,2.9-9.9,8.7-20.3,8.7c-15.9,0-27.3-12-27.3-27.6c0-15.3,10.4-27.6,26.2-27.6
		C364.8,285.3,375.7,296.3,375.7,313.2z M366.4,308.4c-0.3-5.9-5.7-14.2-16.2-14.2c-11.3,0-16,8.7-16.7,14.2H366.4z"/>
	<path class="st0" d="M431.4,305.4v31.4c0,1.2-1,2.2-2.2,2.2h-5c-1.2,0-2.2-1-2.2-2.2V307c0-9-5.6-12.8-12.6-12.8
		c-8.5,0-13,8.8-13,8.8v33.8c0,1.2-1,2.2-2.2,2.2h-5c-1.2,0-2.2-1-2.2-2.2v-47.9c0-1.2,1-2.2,2.2-2.2h4.4c1.2,0,2.2,1,2.2,2.2v5.1
		c0,0,4.8-8.7,16.1-8.7C422.1,285.3,431.4,292.5,431.4,305.4z"/>
	<path class="st0" d="M484.6,293.2v-32.4c0-1.2,1-2.2,2.2-2.2h5c1.2,0,2.2,1,2.2,2.2v76.1c0,1.2-1,2.2-2.2,2.2h-4.2
		c-1.2,0-2.2-1-2.2-2.2v-5.4c0,0-5.1,9-17.7,9c-14.2,0-25.4-12.1-25.4-27.6c0-15.4,11.2-27.6,25.4-27.6
		C479.2,285.3,484.6,293.2,484.6,293.2z M484.6,303.3c0,0-5-9.1-15.4-9.1c-10.4,0-17.4,8.4-17.4,18.7c0,10.3,6.7,18.7,17.4,18.7
		c10.4,0,15.4-9.1,15.4-9.1V303.3z"/>
	<path class="st0" d="M553,332c-2.7,2.7-9,7.9-18.4,8.4c-15.5,0.9-28.4-11.7-28.6-27.2c-0.1-15.4,11.5-27.8,27-27.8
		c9.7,0,16.3,4.9,19.2,7.6c1,0.9,0.9,2.4,0,3.3l-3.2,2.8c-0.8,0.8-2.1,0.8-3,0c-2.1-1.9-6.5-4.9-13-4.9c-10.5,0-17.5,8.4-17.5,18.7
		c0,10.3,6.9,18.7,17.5,18.7c7,0,11.6-3.5,13.8-5.8c0.9-0.9,2.3-0.9,3.2,0l2.9,3C553.9,329.7,553.9,331.1,553,332z"/>
	<path class="st0" d="M566.3,258.5h5c1.2,0,2.2,1,2.2,2.2v76.1c0,1.2-1,2.2-2.2,2.2h-5c-1.2,0-2.2-1-2.2-2.2v-76.1
		C564,259.5,565,258.5,566.3,258.5z"/>
	<path class="st0" d="M639.5,312.9c0,15.4-11.6,27.6-27,27.6s-27-12.1-27-27.6c0-15.4,11.6-27.6,27-27.6S639.5,297.5,639.5,312.9z
		 M630,312.9c0-10.3-6.9-18.7-17.5-18.7c-10.5,0-17.5,8.4-17.5,18.7c0,10.3,6.9,18.7,17.5,18.7C623.1,331.6,630,323.2,630,312.9z"/>
	<path class="st0" d="M650.4,320.4v-31.4c0-1.2,1-2.2,2.2-2.2h5c1.2,0,2.2,1,2.2,2.2v29.9c0,9,5.6,12.8,12.6,12.8
		c8.8,0,13-8.6,13-8.6v-34c0-1.2,1-2.2,2.2-2.2h5c1.2,0,2.2,1,2.2,2.2v47.9c0,1.2-1,2.2-2.2,2.2h-4.4c-1.2,0-2.2-1-2.2-2.2V331
		c0,0-4.8,9.4-16.1,9.4C659.7,340.5,650.4,333.3,650.4,320.4z"/>
	<path class="st0" d="M748.4,293.2v-32.4c0-1.2,1-2.2,2.2-2.2h5c1.2,0,2.2,1,2.2,2.2v76.1c0,1.2-1,2.2-2.2,2.2h-4.2
		c-1.2,0-2.2-1-2.2-2.2v-5.4c0,0-5.1,9-17.7,9c-14.2,0-25.4-12.1-25.4-27.6c0-15.4,11.2-27.6,25.4-27.6
		C743.1,285.3,748.4,293.2,748.4,293.2z M748.4,303.3c0,0-5-9.1-15.4-9.1c-10.4,0-17.4,8.4-17.4,18.7c0,10.3,6.7,18.7,17.4,18.7
		c10.4,0,15.4-9.1,15.4-9.1V303.3z"/>
</g>
<path class="st1" d="M238.3,316.6c0-16.4-12.5-30-28.5-31.7c-2.3-8.3-7.2-15.7-13.8-21.3c-7.6-6.3-17.4-9.8-27.3-9.8
	c-10,0-19.7,3.5-27.3,9.8c-6.7,5.5-11.5,13-13.8,21.3c-16,1.7-28.5,15.3-28.5,31.7c0,0,0,0,0,0c0,1.6,0.2,12.8,8.6,21.4
	c6.4,6.6,15.7,9.9,27.5,9.9c11.4,0,22.7-2,33.5-5.9c3.4,1.2,6.9,2.3,10.4,3.1c7.6,1.8,15.3,2.8,23.1,2.8c11.9,0,21.2-3.3,27.5-9.9
	C238.1,329.5,238.3,318.4,238.3,316.6C238.3,316.7,238.3,316.6,238.3,316.6z M229.6,316.7L229.6,316.7c0,0.1,0.1,8.9-6.2,15.3
	c-4.7,4.8-11.8,7.2-21.2,7.2c-15.9,0-28.8-4.3-36.8-7.9c-7.5-3.4-12.3-6.9-13.5-7.8c-0.1-0.1-0.2-0.2-0.3-0.3c0-0.1-0.1-0.2-0.1-0.4
	v-18.2c0-0.3,0.2-0.6,0.5-0.8l16.3-8.4c0.3-0.1,0.6-0.1,0.8,0l16.3,8.4c0.3,0.2,0.5,0.5,0.5,0.8v18.2c0,0.3-0.1,0.5-0.2,0.6
	c-0.8,0.7-3.6,2.7-8,5.1c3.6,1.1,7.7,2,12.1,2.7c1-0.7,1.5-1.1,1.6-1.2l0.1-0.1c1.5-1.3,3.2-3.9,3.2-7.2v-18.2c0-3.6-2-6.9-5.2-8.6
	l-16.3-8.4c-2.8-1.4-6-1.4-8.8,0l-16.3,8.4c-3.2,1.7-5.2,4.9-5.2,8.6v18.2c0,3.3,1.7,5.9,3.2,7.2l0.1,0.1c0.2,0.2,3.9,3.1,10.4,6.6
	c-6.9,1.7-14.1,2.6-21.3,2.6c-9.4,0-16.5-2.4-21.2-7.2c-6.3-6.4-6.2-15.3-6.2-15.4l0,0l0,0c0,0,0-0.1,0-0.1
	c0-12.8,10.4-23.2,23.2-23.2h3.6l0.7-3.5c1.5-7.6,5.6-14.6,11.6-19.6c6.1-5,13.8-7.8,21.7-7.8c7.9,0,15.7,2.8,21.7,7.8
	c6,5,10.1,11.9,11.6,19.6l0.7,3.5h3.6c12.8,0,23.2,10.4,23.2,23.2C229.6,316.7,229.6,316.7,229.6,316.7L229.6,316.7z"/>
</svg>
