<svg width="150" height="40" viewBox="0 0 150 40" fill="none" xmlns="http://www.w3.org/2000/svg">
<path d="M0 5.33333C0 2.38781 2.68629 0 6 0H144C147.314 0 150 2.38782 150 5.33333V34.6667C150 37.6122 147.314 40 144 40H6C2.6863 40 0 37.6122 0 34.6667V5.33333Z" fill="white"/>
<path fill-rule="evenodd" clip-rule="evenodd" d="M144 0.888889H6C3.23858 0.888889 1 2.87873 1 5.33333V34.6667C1 37.1213 3.23858 39.1111 6 39.1111H144C146.761 39.1111 149 37.1213 149 34.6667V5.33333C149 2.87874 146.761 0.888889 144 0.888889ZM6 0C2.68629 0 0 2.38781 0 5.33333V34.6667C0 37.6122 2.6863 40 6 40H144C147.314 40 150 37.6122 150 34.6667V5.33333C150 2.38782 147.314 0 144 0H6Z" fill="#263238" fill-opacity="0.12"/>
<path d="M42.9146 23.8149C42.1983 23.8149 41.8402 23.6047 41.8402 23.0214C41.8402 22.8791 41.88 22.7083 41.9729 22.5092L44.1879 17.2876H51.0584C51.7614 17.2876 52.1195 17.5579 52.1195 18.1128C52.1195 18.2693 52.0797 18.4401 51.9868 18.6535L51.5889 19.6067H54.4937L55.064 18.2693C55.1303 18.0559 55.1568 17.8709 55.1568 17.686C55.1568 17.1027 54.865 16.6616 54.2682 16.3344C53.7907 16.064 53.2469 15.936 52.6368 15.936H41.8667L38.9355 22.8506C38.8692 23.0498 38.8427 23.2348 38.8427 23.4197C38.8427 24.0031 39.1477 24.4726 39.7446 24.814C40.2221 25.0844 40.7659 25.2266 41.376 25.2266H52.0929L52.5825 23.8149H42.9146ZM65.8075 15.936H57.6504L53.6846 25.2409H56.6556L60.0246 17.2876H64.2291C64.9586 17.2876 65.33 17.5722 65.33 18.1413C65.33 18.312 65.2902 18.4827 65.2106 18.6535L64.8127 19.6067H67.7307L68.301 18.2693C68.3673 18.0701 68.3939 17.8852 68.3939 17.7002C68.3939 17.1169 68.0888 16.6616 67.4787 16.3344C66.9747 16.064 66.4176 15.936 65.8075 15.936ZM81.1534 15.9218H70.3834L67.4522 22.8506C67.3858 23.0071 67.3593 23.1921 67.3593 23.4197C67.3593 24.0031 67.6644 24.4583 68.2612 24.7998C68.752 25.0844 69.2958 25.2266 69.8926 25.2266H80.6361L83.5806 18.2551C83.647 18.0417 83.6735 17.8567 83.6735 17.6718C83.6735 17.0884 83.3684 16.6331 82.7716 16.3059C82.2808 16.0498 81.7503 15.9218 81.1534 15.9218ZM78.2542 23.8149H71.3843C70.6814 23.8149 70.3834 23.5905 70.3834 23.0214C70.3834 22.8506 70.4232 22.6799 70.5028 22.5092L72.731 17.2876H79.6016C80.278 17.2876 80.6229 17.5579 80.6229 18.0986C80.6229 18.2551 80.5831 18.4401 80.4902 18.6535L78.2542 23.8149ZM85.6498 25.2409H100.89L104.842 15.9218L101.845 15.936L98.5024 23.8149H93.4403L96.937 15.9218L93.9395 15.936L90.5477 23.8149H87.2936C86.5773 23.8149 86.1405 23.5905 86.1405 23.0214C86.1405 22.8506 86.1803 22.6799 86.2599 22.5092L89.0717 15.9218L86.1272 15.936L83.1827 22.8933C83.1164 23.0925 83.0899 23.2774 83.0899 23.4624C83.0899 24.0457 83.4082 24.5153 84.0316 24.8425C84.4958 25.1128 85.0529 25.2409 85.6498 25.2409ZM121.939 12.4075L118.636 13.1047L117.443 15.936H109.736C109.033 15.936 108.291 16.1209 107.495 16.4766C106.513 16.9177 105.824 17.5153 105.412 18.2693L103.012 23.9035C102.945 24.7856 103.622 25.2409 105.028 25.2409H116.501L121.939 12.4075ZM107.18 23.8149C106.504 23.7438 106.115 23.3913 106.195 22.9644L108.039 18.6535C108.211 18.2551 108.503 17.9279 108.901 17.6718C109.299 17.4157 109.723 17.2876 110.148 17.2876H116.872L114.05 23.8149H107.18ZM121.17 25.2409L125.241 15.6514L121.939 16.3201L118.159 25.2409H121.17ZM125.746 14.4421L126.621 12.4075L123.318 13.1047L122.469 15.125L125.746 14.4421ZM137.524 15.936H126.754L122.801 25.2409H125.799L129.167 17.2876H135.958C136.675 17.2876 137.033 17.5722 137.033 18.1413C137.033 18.312 136.993 18.4827 136.913 18.6535L134.102 25.2409H137.046L139.991 18.2693C140.057 18.1128 140.083 17.9279 140.083 17.7002C140.083 17.1169 139.778 16.6616 139.168 16.3344C138.704 16.064 138.147 15.936 137.524 15.936Z" fill="#2E3340"/>
<path d="M24.8962 19.2173C25.4373 16.3385 29.6599 15.5233 34.1183 16.0638C34.2481 16.0859 34.2373 16.2954 34.1507 16.2844C30.3308 16.2844 27.2394 18.2515 27.2394 21.5605C27.2394 24.1746 28.9994 24.9198 30.5361 24.6992C30.5636 24.6981 30.5907 24.7068 30.6127 24.7238C30.6347 24.7408 30.6502 24.765 30.6566 24.7924C30.663 24.8197 30.6599 24.8485 30.6477 24.8737C30.6356 24.899 30.6153 24.9192 30.5902 24.9309C29.9106 25.2403 29.4079 25.1753 28.6643 25.1414H28.5453C26.8788 25.0973 25.1776 24.7516 24.8962 21.7735L25.6993 21.3471V20.5971C25.6885 20.4539 25.6885 20.3101 25.6993 20.1669L24.9851 20.0677C24.9959 19.9684 24.8962 19.3276 24.8962 19.2173Z" fill="white"/>
<path d="M30.8606 13.2528C32.727 13.2073 33.6051 13.4333 35.4291 13.8463C35.4557 13.8498 35.4804 13.8622 35.4995 13.8817C35.5185 13.9012 35.5309 13.9266 35.5347 13.9541C35.5385 13.9816 35.5335 14.0096 35.5204 14.0338C35.5074 14.0581 35.487 14.0772 35.4624 14.0883C32.5848 14.2035 22.5528 14.1101 22.5528 21.3475C22.5528 26.787 25.5895 26.917 27.8116 26.456C27.8373 26.4568 27.8621 26.4659 27.8825 26.4821C27.9029 26.4984 27.9178 26.5208 27.9252 26.5463C27.9326 26.5718 27.932 26.5991 27.9236 26.6243C27.9152 26.6494 27.8993 26.6712 27.8783 26.6865C26.9152 27.2184 26.435 27.2389 25.3504 27.3618C24.9194 27.4212 24.4852 27.452 24.0504 27.454C21.4172 27.454 18.9388 26.6023 18.5055 21.7735L19.7836 21.9865C19.7836 21.5716 19.4284 20.6315 19.4284 20.159C19.4174 19.9594 19.4174 19.8429 19.4284 19.6433C19.1728 19.6087 18.9833 19.6289 18.5056 19.5597C18.5167 19.3984 18.5055 18.5381 18.5055 18.3652C19.3499 13.813 26.1742 12.8267 30.8606 13.2528Z" fill="white"/>
<path d="M24.7974 8.99556C29.1509 8.93876 33.0544 9.64174 37.1609 11.0722C37.1754 11.075 37.1892 11.0807 37.2015 11.0888C37.2138 11.097 37.2243 11.1075 37.2325 11.1196C37.2407 11.1318 37.2465 11.1455 37.2493 11.1598C37.2522 11.1742 37.2522 11.189 37.2493 11.2033C37.2464 11.2177 37.2406 11.2313 37.2324 11.2435C37.2242 11.2556 37.2136 11.2661 37.2013 11.2742C37.189 11.2823 37.1751 11.288 37.1606 11.2908C37.1461 11.2936 37.1311 11.2936 37.1166 11.2908C35.3148 11.1815 25.2285 10.0885 20.3648 13.6078C15.6447 16.9413 15.0218 25.011 19.1449 27.951C21.2673 29.4811 22.4429 29.051 23.7805 29.051C23.8086 29.0499 23.8363 29.0585 23.8588 29.0753C23.8812 29.0921 23.8971 29.1161 23.9036 29.1433C23.9101 29.1704 23.9069 29.1989 23.8945 29.2239C23.8822 29.2489 23.8614 29.2689 23.8357 29.2805C22.2105 29.8856 20.4875 29.7669 18.7509 29.7616C14.4509 29.7616 9.98511 28.2662 9.98511 20.4954C10.5046 20.6265 11.19 20.8121 11.6874 20.9214C11.6985 20.2984 11.61 19.1818 11.6874 18.4714C11.7095 18.2201 11.798 17.9796 11.798 17.7392L10.4273 17.5131C10.4715 17.2727 10.5578 15.8364 10.6242 15.5959C12.1275 10.4263 18.3751 8.99556 24.7974 8.99556Z" fill="white"/>
<path d="M32.7115 15.7404C26.2862 15.7404 24.5385 17.5775 24.5385 20.1811C24.5385 20.1811 25.0782 20.2736 25.2581 20.3C25.2067 20.6965 25.2195 21.1062 25.2324 21.5027C25.0139 21.4763 24.7826 21.4366 24.5513 21.4102C24.5513 24.0667 25.952 25.3222 28.9077 25.3222C29.6145 25.3222 31.1951 24.9918 31.1951 24.5821C31.1951 24.212 27.5327 25.7716 27.5327 21.4631C27.5327 15.9387 35.0889 16.7581 35.0889 16.2955C35.1018 15.8461 33.5468 15.7404 32.7115 15.7404ZM28.2652 24.8861C26.2733 24.8861 25.0525 23.5116 25.0525 21.9124L26.6845 22.071C26.6845 24.2913 28.3294 24.8861 28.2652 24.8861ZM26.7488 20.0093L25.0011 19.8242C25.0011 17.4057 27.507 16.1501 32.3517 16.1501C30.1542 16.1501 26.7488 17.4717 26.7488 20.0093Z" fill="#2E3340"/>
<path d="M28.7413 12.9918C23.4211 12.9918 18.178 14.8024 18.178 19.8114C18.178 19.8114 18.9876 19.9304 19.2574 19.9568C19.1803 20.5647 19.206 21.1991 19.2446 21.8071L18.2165 21.6617C18.2165 24.1067 19.6687 27.5958 24.2307 27.5958C24.9632 27.5958 28.42 26.9482 28.42 26.5121C28.42 26.1552 27.6104 26.3535 27.3406 26.3535C23.6781 26.3535 22.8428 23.6706 22.8428 21.7013C22.8428 19.1374 23.5624 14.1549 35.3337 14.1549C35.4751 14.1549 36.3104 14.3002 36.3104 13.8641C36.3104 13.428 32.4295 12.9918 28.7413 12.9918ZM25.1688 27.0671C24.719 27.1332 24.2435 27.1729 23.7938 27.1729C20.8638 27.1729 18.7049 24.6486 18.7049 22.1771L21.622 22.4547C21.622 22.4547 21.8404 23.6838 21.9304 23.9613C22.0461 24.3182 22.1874 24.6618 22.3673 24.9922C22.9842 26.1024 23.9737 26.816 25.1688 27.0671ZM21.7248 19.785L18.6278 19.4414C18.6278 15.5558 23.254 13.3751 28.9084 13.3751C31.0159 13.3751 33.0206 13.6394 33.0206 13.6394C33.0206 13.6394 21.7248 14.1416 21.7248 19.785Z" fill="#2E3340"/>
<path d="M24.3994 8.80206C16.1492 8.80206 10.1094 12.0004 10.1094 17.6834C10.1094 17.6834 11.2917 17.9874 11.6772 18.0799C11.4973 18.9918 11.4459 19.9302 11.433 20.8553L9.91663 20.4852C9.91663 29.7366 16.0464 30.0802 19.5161 30.0802C21.5851 30.0802 24.9906 29.5516 24.9906 29.0494C24.9906 28.7454 24.4765 28.9172 23.3585 28.9172C22.3819 28.9172 16.6247 28.6793 16.6247 21.9126C16.6247 13.1502 23.7954 11.2206 33.5749 11.2206C36.8647 11.2206 37.6229 11.9475 37.6229 11.2867C37.6357 10.4937 30.7606 8.80206 24.3994 8.80206ZM21.0839 29.697C17.9741 29.697 10.3407 30.2388 10.3407 21.0535C11.7671 21.4236 13.3735 21.7936 14.9541 21.9919C14.967 29.0626 21.0839 29.697 21.0839 29.697ZM29.7196 10.2559C15.5196 10.2559 15.2882 18.4235 15.2882 18.4235C15.2882 18.4235 12.1912 17.8288 10.6234 17.3662C10.5592 17.3662 10.6106 9.3175 24.7464 9.3175C30.3108 9.3175 33.9347 10.3616 33.9347 10.3616C32.791 10.2823 30.9919 10.2559 29.7196 10.2559Z" fill="#2E3340"/>
</svg>
