<svg width="180" height="37" viewBox="0 0 180 37" fill="none" xmlns="http://www.w3.org/2000/svg">
<path d="M46.5518 20.0596C46.5518 22.8097 47.3937 25.0143 49.0759 26.6769C50.7599 28.3377 53.035 29.169 55.9047 29.169C58.7745 29.169 60.7058 28.4667 62.1406 27.0638C63.5755 25.6504 64.2929 24.0105 64.2929 22.1475V21.9784H60.1409V22.13C60.1409 22.8812 59.8129 23.5277 59.1586 24.0662C58.5026 24.6047 57.408 24.8749 55.8714 24.8749C54.1436 24.8749 52.8771 24.4531 52.0755 23.6114C51.2738 22.7696 50.8722 21.6473 50.8722 20.2444V19.3347C50.8722 17.9317 51.2791 16.8094 52.093 15.9677C52.9069 15.1259 54.1664 14.7042 55.8714 14.7042C57.3624 14.7042 58.4465 14.9621 59.1253 15.478C59.8147 15.9938 60.1585 16.6456 60.1585 17.4316V17.6006H64.3105L64.2929 17.381C64.2245 15.5058 63.4913 13.8799 62.0898 12.4978C60.6882 11.1054 58.6271 10.41 55.9047 10.41C53.035 10.41 50.7581 11.2413 49.0759 12.9022C47.392 14.5526 46.5518 16.7571 46.5518 19.5194V20.0579V20.0596Z" fill="#263238"/>
<path d="M67.7853 28.6636H72.0215V19.9184C72.0215 18.0032 72.9477 17.0133 73.716 16.473C74.4843 15.9223 75.3596 15.6487 76.3419 15.6487C76.6471 15.6487 76.9243 15.6661 77.1716 15.6992C77.4312 15.7324 77.6751 15.7724 77.8996 15.8178V10.6662C77.7873 10.6209 77.5891 10.5703 77.3067 10.5146C77.0348 10.4588 76.7699 10.4309 76.5103 10.4309C75.5052 10.4309 74.6071 10.701 73.816 11.2395C73.1038 11.724 72.5285 12.2974 72.0917 12.9544C72.0461 13.0224 71.9391 12.9945 71.9338 12.9126L71.5637 10.9189H67.7836V28.6636H67.7853Z" fill="#263238"/>
<path d="M79.6309 20.0596C79.6309 22.8097 80.5062 25.0143 82.2568 26.6768C84.0074 28.3377 86.3123 29.169 89.1715 29.169C92.0307 29.169 94.3181 28.3377 96.0687 26.6768C97.8316 25.016 98.7122 22.8097 98.7122 20.0596V19.5211C98.7122 16.7606 97.8316 14.5543 96.0687 12.9039C94.3181 11.243 92.0185 10.4117 89.1715 10.4117C86.3246 10.4117 84.0091 11.243 82.2568 12.9039C80.5062 14.5543 79.6309 16.7588 79.6309 19.5211V20.0596ZM83.9513 19.3364C83.9513 17.7993 84.4038 16.6769 85.3072 15.9694C86.2106 15.2618 87.4981 14.908 89.1715 14.908C90.845 14.908 92.1149 15.2618 93.0183 15.9694C93.934 16.6769 94.3918 17.7993 94.3918 19.3364V20.2461C94.3918 21.8407 93.9392 22.9787 93.0359 23.6636C92.143 24.3363 90.8555 24.6744 89.1715 24.6744C87.4876 24.6744 86.1948 24.3381 85.2914 23.6636C84.3986 22.9787 83.953 21.839 83.953 20.2461V19.3364H83.9513Z" fill="#263238"/>
<path d="M100.636 10.9153L105.957 28.66H110.775L114.554 15.7741C114.594 15.6364 114.79 15.6329 114.834 15.7706L118.909 28.66H123.726L129.081 10.9153H123.842L121.198 20.7985C121.086 21.2481 120.977 21.6907 120.876 22.1282C120.818 22.4035 120.721 22.841 120.66 23.1181C120.646 23.1791 120.558 23.1808 120.544 23.1181C120.469 22.8009 120.388 22.4715 120.298 22.1264C120.186 21.6768 120.062 21.2341 119.925 20.7967L116.976 10.9136H111.959C111.959 10.9136 108.998 20.9954 108.451 23.0048C108.428 23.0919 108.304 23.0902 108.281 23.0048L105.215 10.9153H100.633H100.636Z" fill="#263238"/>
<path d="M130.469 20.0596C130.469 22.6859 131.186 24.8347 132.621 26.5078C134.066 28.1686 136.073 28.9999 138.638 28.9999C139.971 28.9999 141.123 28.7594 142.093 28.2767C142.769 27.9368 143.635 27.1752 144.112 26.7308C144.307 27.5464 144.568 28.6653 144.568 28.6653H148.768V2.85339H144.347V13.0555C143.783 12.2695 143.037 11.663 142.111 11.2378C141.185 10.8003 140.06 10.5808 138.739 10.5808C136.254 10.5808 134.254 11.4173 132.74 13.0886C131.227 14.7494 130.469 16.893 130.469 19.5193V20.0578V20.0596ZM134.791 20.2286L134.775 19.3538C134.775 18.0746 135.17 17.0411 135.961 16.2552C136.752 15.4587 137.978 15.0596 139.639 15.0596C140.802 15.0596 141.792 15.3298 142.604 15.8683C142.613 15.8735 142.62 15.8787 142.628 15.8839C143.716 16.6124 144.349 17.8463 144.349 19.1499V20.3698C144.349 21.71 143.681 22.9735 142.546 23.6967C142.537 23.7019 142.528 23.7072 142.52 23.7124C141.65 24.2509 140.644 24.521 139.504 24.521C137.831 24.521 136.629 24.1219 135.894 23.3255C135.159 22.5291 134.793 21.4956 134.793 20.2269L134.791 20.2286Z" fill="#263238"/>
<path d="M153.785 28.6635H158.005V10.917H153.785V28.6617V28.6635ZM152.888 6.06868C152.888 6.832 153.148 7.46114 153.667 7.95434C154.199 8.43708 154.943 8.67758 155.904 8.67758C156.865 8.67758 157.588 8.43011 158.107 7.93691C158.638 7.44371 158.903 6.8198 158.903 6.06868C158.903 5.31755 158.644 4.71107 158.123 4.21613C157.603 3.72293 156.858 3.47546 155.886 3.47546C154.914 3.47546 154.199 3.72293 153.667 4.21613C153.148 4.70933 152.888 5.32801 152.888 6.06868Z" fill="#263238"/>
<path d="M163.122 28.6635H167.342V21.466C167.342 17.3914 168.793 14.8087 171.95 14.8087C175.108 14.8087 175.781 16.6333 175.781 19.1952V28.6635H180V18.1408C180 15.1224 179.379 13.106 178.135 12.0969C176.892 11.0757 175.306 10.5651 173.373 10.5651C172.098 10.5651 170.917 10.8003 169.831 11.2726C168.856 11.6909 168.061 12.2869 167.449 13.0572C167.398 12.7836 167.12 10.9188 167.12 10.9188H163.12V28.6635H163.122Z" fill="#263238"/>
<path d="M26.3793 37H10.8621C4.26724 37 0 32.7604 0 26.2083V10.6736C0 4.23958 4.26724 0 10.7432 0H26.3793C32.9741 0 37.2414 4.23958 37.2414 10.7917V26.2083C37.2414 32.7604 32.9741 37 26.3793 37Z" fill="#263238"/>
<path d="M23.9262 25.2082C23.2294 25.2082 22.6085 24.9934 22.0946 24.5725C21.4806 24.0771 20.9925 23.3383 20.9752 22.47C20.9666 22.0313 21.4305 22.0313 21.4305 22.0313C21.4305 22.0313 22.1842 22.0225 22.5499 22.0225C22.9155 22.0313 23.0224 22.5552 23.0397 22.6866C23.1811 23.864 23.8279 24.3772 24.3246 24.6116C24.623 24.7519 24.5488 25.1905 23.9262 25.21V25.2082Z" fill="white"/>
<path d="M17.6689 19.2255C17.0549 19.1509 16.1442 19.087 15.5561 18.9378C14.6023 18.6963 14.6282 17.8137 14.6696 17.5261C14.7852 16.663 15.0922 15.8639 15.5647 15.1216C16.1528 14.2124 16.998 13.4133 18.0845 12.7634C20.1231 11.5469 23.2473 10.7916 26.3794 10.7916C26.9598 10.7916 31.1854 10.7916 31.1854 11.6588C31.1854 12.1406 30.2097 12.0957 29.7849 12.0957C26.5942 12.0957 24.3228 12.5414 22.6326 13.5074C20.9665 14.4539 19.8058 15.903 19.0193 18.0481C18.9365 18.2346 18.6623 19.3391 17.6689 19.2273V19.2255Z" fill="white"/>
<path d="M20.4524 28.0777C18.8691 28.1114 17.3772 27.3745 16.2475 26.0888C15.2903 25.0002 14.7143 23.9028 14.6073 22.4946C14.5418 21.5747 14.9368 21.2569 15.4731 21.3119C15.844 21.3492 16.9978 21.406 17.6583 21.5463C18.1533 21.6493 18.4828 21.9317 18.5655 22.5124C19.0019 25.6093 20.8991 26.8275 22.0288 27.0904C22.2271 27.1365 22.3496 27.2679 22.3427 27.5041C22.334 27.7296 22.2081 28.0386 20.4541 28.0759L20.4524 28.0777Z" fill="white"/>
<path d="M15.9424 30.8271C14.8196 30.875 13.7209 30.6424 13.407 30.5856C12.0859 30.344 10.9786 29.9267 10.03 29.307C7.75861 27.826 6.38746 25.2102 6.22361 22.1132C6.18222 21.3781 6.09081 19.9734 7.7931 20.08C8.49506 20.119 9.60922 20.4671 10.394 20.6997C11.3684 20.9803 11.8393 21.7545 11.8393 22.5199C11.8393 26.8866 15.5173 29.6773 17.263 29.6773C17.6631 29.6773 17.8449 29.8061 17.8449 30.0627C17.8449 30.2554 17.6636 30.7543 15.9441 30.8288L15.9424 30.8271Z" fill="white"/>
<path d="M10.0832 17.9948C9.41916 17.8722 8.77067 17.5899 8.13943 17.4283C6.18706 16.9293 6.51993 14.9013 6.70274 14.3455C8.4792 8.96128 14.119 7.16063 18.6705 6.67938C22.9564 6.22656 27.4406 6.57639 31.6179 7.77327C31.9163 7.85496 32.739 8.05918 32.5613 8.5564C32.3837 9.05362 31.8887 8.70734 27.332 8.60435C25.8298 8.57061 24.3293 8.66828 22.8236 8.90623C20.24 9.31111 17.5839 10.1511 15.4487 11.9233C14.4191 12.781 13.5136 13.8749 12.9082 15.1677C12.7496 15.5069 12.6254 15.846 12.5185 16.1852C12.4098 16.5439 12.0028 18.3446 10.0849 17.9965L10.0832 17.9948Z" fill="white"/>
<path d="M21.0096 19.0339C21.3752 17.3487 22.6941 14.8386 27.7372 14.8386C28.3191 14.8386 28.513 15.0313 28.513 15.224C28.513 15.4167 28.2416 15.6095 27.9311 15.6095C24.8667 15.6095 23.8933 17.4783 23.1862 19.3927C22.9585 20.0089 22.4394 20.1012 21.7892 19.9911C21.3339 19.9076 20.8389 19.8526 21.0096 19.0339Z" fill="white"/>
</svg>
