<svg width="358pt" height="98pt" viewBox="0 0 358 98" xmlns="http://www.w3.org/2000/svg">
  <g stroke-linecap="round" fill-rule="evenodd" fill="#5da563">
    <path d="M 41.3 16.9 L 23.3 15.6 L 23.3 39 L 45.6 37.4 L 45.6 47.9 L 23.3 46.9 L 23.3 66.8 L 35.3 68.5 L 35.2 73.6 L 0.6 73.6 L 0 70.4 Q 3.1 68.5 8.1 66.4 L 8.1 13.8 L 0.7 12.9 L 0.8 7.8 L 53 7.8 Q 53.317 13.316 52.589 19.636 A 96.925 96.925 0 0 1 51.4 27.2 L 43 27.2 L 41.3 16.9 Z M 357.7 26.1 L 358 30.5 Q 355.3 32.1 352.4 33.1 Q 347.455 50.656 343.596 61.758 A 210.988 210.988 0 0 1 342 66.2 A 62.976 62.976 0 0 1 335.062 78.76 A 56.226 56.226 0 0 1 331.7 83 A 55.262 55.262 0 0 1 322.983 90.962 A 72.272 72.272 0 0 1 315.5 95.8 L 307.8 82.7 A 81.57 81.57 0 0 0 316.154 79.896 Q 320.196 78.274 323.429 76.361 A 35.9 35.9 0 0 0 328.1 73.1 Q 324 72.1 320.6 69.8 L 307.7 34.2 L 300.9 31.3 L 300.9 26.1 L 327.5 26.1 L 327.8 30.5 L 322.6 33.1 L 328.3 52.2 L 329.5 60.9 L 331.3 60.9 Q 335.6 47.2 337.7 33.3 L 332.5 31.3 L 332.6 26.1 L 357.7 26.1 Z M 209 18.1 L 211.5 31 L 209.3 30.9 A 21.354 21.354 0 0 0 204.8 31.358 A 17.895 17.895 0 0 0 202 32.2 Q 204.8 36.1 204.8 40.9 A 14.371 14.371 0 0 1 199.963 51.895 A 19.649 19.649 0 0 1 198.25 53.3 Q 191.7 58.1 182 58.1 L 178.6 57.9 L 173.4 62.4 Q 181.3 62.5 190.9 64.25 A 156.222 156.222 0 0 1 198.86 65.906 Q 202.938 66.871 206.499 67.983 A 91.456 91.456 0 0 1 207.8 68.4 Q 208.8 71.3 208.8 74.3 A 18.848 18.848 0 0 1 203.842 87.024 A 28.919 28.919 0 0 1 199.8 90.8 A 33.204 33.204 0 0 1 179.547 97.791 A 41.277 41.277 0 0 1 178.7 97.8 A 31.592 31.592 0 0 1 171.445 97.003 A 24.417 24.417 0 0 1 164.2 94.05 Q 158.591 90.602 157.971 83.984 A 17.737 17.737 0 0 1 157.9 82.8 L 168.9 72.9 L 162.6 72.5 L 160.6 66.1 A 59.194 59.194 0 0 1 169.396 58.159 A 53.422 53.422 0 0 1 171.8 56.5 A 21.78 21.78 0 0 1 166.735 53.986 A 17.724 17.724 0 0 1 162.8 50.35 Q 159.5 46.2 159.5 41 Q 159.5 33.5 166.05 28.5 A 24.043 24.043 0 0 1 176.75 23.952 A 32.753 32.753 0 0 1 182.3 23.5 A 31.467 31.467 0 0 1 188.947 24.17 A 23.535 23.535 0 0 1 196.2 27 Q 199.6 18.9 209 18.1 Z M 265.9 18.1 L 268.4 31 L 266.2 30.9 A 21.354 21.354 0 0 0 261.7 31.358 A 17.895 17.895 0 0 0 258.9 32.2 Q 261.7 36.1 261.7 40.9 A 14.371 14.371 0 0 1 256.863 51.895 A 19.649 19.649 0 0 1 255.15 53.3 Q 248.6 58.1 238.9 58.1 L 235.5 57.9 L 230.3 62.4 Q 238.2 62.5 247.8 64.25 A 156.222 156.222 0 0 1 255.76 65.906 Q 259.838 66.871 263.399 67.983 A 91.456 91.456 0 0 1 264.7 68.4 Q 265.7 71.3 265.7 74.3 A 18.848 18.848 0 0 1 260.742 87.024 A 28.919 28.919 0 0 1 256.7 90.8 A 33.204 33.204 0 0 1 236.447 97.791 A 41.277 41.277 0 0 1 235.6 97.8 A 31.592 31.592 0 0 1 228.345 97.003 A 24.417 24.417 0 0 1 221.1 94.05 Q 215.491 90.602 214.871 83.984 A 17.737 17.737 0 0 1 214.8 82.8 L 225.8 72.9 L 219.5 72.5 L 217.5 66.1 A 59.194 59.194 0 0 1 226.296 58.159 A 53.422 53.422 0 0 1 228.7 56.5 A 21.78 21.78 0 0 1 223.635 53.986 A 17.724 17.724 0 0 1 219.7 50.35 Q 216.4 46.2 216.4 41 Q 216.4 33.5 222.95 28.5 A 24.043 24.043 0 0 1 233.65 23.952 A 32.753 32.753 0 0 1 239.2 23.5 A 31.467 31.467 0 0 1 245.847 24.17 A 23.535 23.535 0 0 1 253.1 27 Q 256.5 18.9 265.9 18.1 Z M 80.8 36.8 L 90.8 25.6 Q 93.2 24.7 95.8 24.7 A 14.654 14.654 0 0 1 99.523 25.149 A 10.675 10.675 0 0 1 104.2 27.7 Q 103.7 38.7 100.5 46.6 L 92.9 46.6 L 90.9 35.4 A 57.539 57.539 0 0 0 81.088 44.751 A 63.518 63.518 0 0 0 80.8 45.1 L 80.8 65.3 Q 87.8 66.7 91.6 68.7 L 91.2 73.6 L 59.2 73.6 L 58.9 70.2 Q 60.915 69.048 63.863 67.897 A 69.012 69.012 0 0 1 66.3 67 L 66.3 33.4 L 58.8 32.5 L 58.1 27.7 Q 66.7 24.4 75.9 24.2 L 80.8 28.6 L 80.8 36.8 Z M 293.3 4.4 L 293.3 65.7 Q 297.785 67.132 300.358 68.563 A 17.894 17.894 0 0 1 300.6 68.7 L 300.2 73.6 L 271.5 73.6 L 271.2 70.2 A 33.616 33.616 0 0 1 273.675 68.939 Q 275.081 68.29 276.732 67.655 A 68.635 68.635 0 0 1 278.8 66.9 L 278.8 9.1 L 271.3 8.3 L 270.6 3.5 Q 279.2 0.2 288.4 0 L 293.3 4.4 Z M 106.947 41.012 A 29.959 29.959 0 0 0 105.8 49.5 A 33.766 33.766 0 0 0 105.939 52.601 A 25.291 25.291 0 0 0 112.85 68.2 A 23.548 23.548 0 0 0 120.489 73.633 A 24.46 24.46 0 0 0 130.4 75.6 A 29.575 29.575 0 0 0 131.358 75.585 A 22.173 22.173 0 0 0 147.35 68.6 A 23.302 23.302 0 0 0 153.065 58.053 A 32.838 32.838 0 0 0 154 50 Q 154 38.5 147.25 31.25 Q 140.5 24 130.1 24 Q 119.7 24 112.75 31.1 A 23.401 23.401 0 0 0 106.947 41.012 Z M 134.5 66.9 Q 139.2 63.6 139.2 51.2 A 45.134 45.134 0 0 0 138.884 45.687 Q 138.54 42.9 137.823 40.562 A 21.673 21.673 0 0 0 136.75 37.75 A 11.39 11.39 0 0 0 135.121 35.154 A 7.306 7.306 0 0 0 129.3 32.5 Q 126.3 32.5 124.2 33.9 A 14.573 14.573 0 0 0 122.15 37.885 Q 120.812 41.734 120.629 47.445 A 57.953 57.953 0 0 0 120.6 49.3 Q 120.6 55.167 121.998 59.448 A 19.684 19.684 0 0 0 123.2 62.35 Q 125.745 67.293 130.876 67.398 A 10.947 10.947 0 0 0 131.1 67.4 A 11.565 11.565 0 0 0 133.88 67.073 A 10.56 10.56 0 0 0 134.5 66.9 Z M 180.7 86.6 Q 186.1 86.6 191.3 84.6 Q 195.786 82.875 198.188 79.959 A 11.814 11.814 0 0 0 198.9 79 Q 192.603 76.341 183.368 74.71 A 138.473 138.473 0 0 0 174.9 73.5 A 28.312 28.312 0 0 0 172.796 75.251 Q 169.5 78.3 169.5 80.8 Q 169.5 83.396 172.412 84.929 A 9.794 9.794 0 0 0 172.65 85.05 A 13.748 13.748 0 0 0 175.739 86.109 Q 177.22 86.439 178.95 86.547 A 28.053 28.053 0 0 0 180.7 86.6 Z M 237.6 86.6 Q 243 86.6 248.2 84.6 Q 252.686 82.875 255.088 79.959 A 11.814 11.814 0 0 0 255.8 79 Q 249.503 76.341 240.268 74.71 A 138.473 138.473 0 0 0 231.8 73.5 A 28.312 28.312 0 0 0 229.696 75.251 Q 226.4 78.3 226.4 80.8 Q 226.4 83.396 229.312 84.929 A 9.794 9.794 0 0 0 229.55 85.05 A 13.748 13.748 0 0 0 232.639 86.109 Q 234.12 86.439 235.85 86.547 A 28.053 28.053 0 0 0 237.6 86.6 Z M 190.472 42.856 A 19.451 19.451 0 0 0 190.5 41.8 Q 190.5 37.3 187.8 33.9 A 9.233 9.233 0 0 0 185.157 31.58 A 8.43 8.43 0 0 0 180.9 30.5 A 9.9 9.9 0 0 0 178.336 30.853 A 13.108 13.108 0 0 0 176.5 31.5 Q 173.7 34.3 173.7 40.6 A 15.775 15.775 0 0 0 174.066 44.091 A 11.11 11.11 0 0 0 176.1 48.5 A 7.719 7.719 0 0 0 181.74 51.557 A 10.58 10.58 0 0 0 182.7 51.6 A 9.427 9.427 0 0 0 183.895 51.517 Q 185.125 51.359 186.7 50.9 Q 190.174 48.34 190.472 42.856 Z M 247.372 42.856 A 19.451 19.451 0 0 0 247.4 41.8 Q 247.4 37.3 244.7 33.9 A 9.233 9.233 0 0 0 242.057 31.58 A 8.43 8.43 0 0 0 237.8 30.5 A 9.9 9.9 0 0 0 235.236 30.853 A 13.108 13.108 0 0 0 233.4 31.5 Q 230.6 34.3 230.6 40.6 A 15.775 15.775 0 0 0 230.966 44.091 A 11.11 11.11 0 0 0 233 48.5 A 7.719 7.719 0 0 0 238.64 51.557 A 10.58 10.58 0 0 0 239.6 51.6 A 9.427 9.427 0 0 0 240.795 51.517 Q 242.025 51.359 243.6 50.9 Q 247.074 48.34 247.372 42.856 Z" vector-effect="non-scaling-stroke"/>
  </g>
</svg>
