<svg width="496" height="88" viewBox="0 0 496 88" fill="none" xmlns="http://www.w3.org/2000/svg">
<path d="M115.758 65.4517V22.2215C115.758 21.1125 116.659 20.2337 117.748 20.2337H125.248C126.359 20.2337 127.239 21.1334 127.239 22.2215V55.5335C127.239 56.6425 128.14 57.5213 129.229 57.5213H147.959C149.069 57.5213 149.949 58.421 149.949 59.5091V65.4726C149.949 66.5816 149.048 67.4605 147.959 67.4605H117.748C116.659 67.4605 115.758 66.5607 115.758 65.4517Z" fill="#066FEF"/>
<path d="M313.657 65.4517V22.2215C313.657 21.1125 314.558 20.2337 315.648 20.2337H323.148C324.258 20.2337 325.138 21.1334 325.138 22.2215V55.5335C325.138 56.6425 326.039 57.5213 327.129 57.5213H345.858C346.969 57.5213 347.849 58.421 347.849 59.5091V65.4726C347.849 66.5816 346.948 67.4605 345.858 67.4605H315.648C314.558 67.4605 313.657 66.5607 313.657 65.4517Z" fill="#066FEF"/>
<path d="M178.714 18.9573C163.944 18.9573 153.008 28.4989 153.008 43.6483C153.008 58.5884 163.965 68.7369 178.714 68.7369C193.547 68.7369 204.505 58.5884 204.505 43.6483C204.484 28.4989 193.526 18.9573 178.714 18.9573ZM178.714 58.3164C170.774 58.3164 165.222 52.1855 165.222 43.6483C165.222 35.3831 170.69 29.2313 178.714 29.2313C186.738 29.2313 192.269 35.3622 192.269 43.6483C192.269 52.1855 186.655 58.3164 178.714 58.3164Z" fill="#066FEF"/>
<path d="M235.281 68.7159C220.72 68.7159 209.826 58.5675 209.826 43.7738C209.826 28.6244 221.056 18.9573 235.47 18.9573C241.315 18.9573 247.579 20.8405 251.664 24.3977C252.523 25.151 252.565 26.4901 251.748 27.3062L246.888 32.1607C246.133 32.914 244.918 32.9349 244.143 32.2235C241.943 30.2566 238.843 29.294 235.868 29.294C227.927 29.294 222.25 35.4249 222.25 43.7738C222.25 52.3738 227.802 58.2536 235.679 58.2536C239.345 58.2536 242.383 56.9145 244.478 54.8848C245.233 54.1524 246.448 54.1524 247.223 54.8848L252.209 59.5719C253.026 60.3461 253.047 61.6643 252.23 62.4386C248.124 66.3305 242.362 68.7159 235.281 68.7159Z" fill="#066FEF"/>
<path d="M286.861 20.4848H278.418C277.622 20.4848 276.889 20.9661 276.575 21.6984L258.41 64.7193C257.866 66.0376 258.829 67.4814 260.254 67.4814H268.299C269.137 67.4814 269.87 66.9792 270.164 66.205L272.657 59.6137C272.95 58.8395 273.683 58.3373 274.521 58.3373H290.088C290.905 58.3373 291.638 58.8395 291.931 59.5928L294.613 66.2468C294.906 67.0001 295.64 67.5023 296.457 67.5023H304.795C306.22 67.5023 307.183 66.0585 306.639 64.7402L288.663 21.7193C288.391 20.9661 287.678 20.4848 286.861 20.4848ZM277.434 46.4731L280.555 38.0405C281.205 36.3038 283.677 36.3038 284.305 38.0614L287.364 46.494C287.825 47.7913 286.882 49.1724 285.5 49.1724H279.298C277.915 49.1514 276.952 47.7704 277.434 46.4731Z" fill="#066FEF"/>
<path d="M383.255 20.4848H374.812C374.016 20.4848 373.283 20.9661 372.969 21.6984L354.804 64.7193C354.26 66.0376 355.223 67.4814 356.648 67.4814H364.693C365.531 67.4814 366.264 66.9792 366.558 66.205L369.051 59.6137C369.344 58.8395 370.077 58.3373 370.915 58.3373H386.482C387.299 58.3373 388.032 58.8395 388.325 59.5928L391.007 66.2468C391.3 67.0001 392.034 67.5023 392.851 67.5023H401.189C402.614 67.5023 403.577 66.0585 403.033 64.7402L385.099 21.6984C384.785 20.9661 384.051 20.4848 383.255 20.4848ZM373.827 46.4731L376.949 38.0405C377.599 36.3038 380.071 36.3038 380.699 38.0614L383.758 46.494C384.219 47.7913 383.276 49.1724 381.893 49.1724H375.713C374.309 49.1514 373.346 47.7704 373.827 46.4731Z" fill="#066FEF"/>
<path d="M409.402 65.4517V60.388C409.402 58.5675 410.03 56.7889 411.182 55.3661L430.583 31.4911C431.106 30.8425 430.646 29.859 429.808 29.859H411.916C410.805 29.859 409.925 28.9592 409.925 27.8712V22.1797C409.925 21.0707 410.826 20.1918 411.916 20.1918H444.201C445.311 20.1918 446.191 21.0916 446.191 22.1797V26.4901C446.191 28.3315 445.562 30.1101 444.389 31.533L424.486 55.9519C423.962 56.6006 424.423 57.5841 425.261 57.5841H444.682C445.793 57.5841 446.673 58.4838 446.673 59.5719V65.4517C446.673 66.5607 445.772 67.4395 444.682 67.4395H411.392C410.302 67.4605 409.402 66.5607 409.402 65.4517Z" fill="#066FEF"/>
<path d="M479.419 49.842V65.4517C479.419 66.5607 478.518 67.4395 477.428 67.4395H469.991C468.88 67.4395 468 66.5398 468 65.4517V49.8001C468 48.2517 467.561 46.7451 466.702 45.4478L452.246 23.2887C451.387 21.9704 452.329 20.2128 453.922 20.2128H462.909C463.622 20.2128 464.271 20.5894 464.627 21.2171L473.28 36.1991C473.657 36.8687 474.621 36.8687 474.998 36.1991L483.651 21.2171C484.007 20.6103 484.656 20.2128 485.368 20.2128H493.853C495.446 20.2128 496.388 21.9914 495.509 23.3096L480.738 45.4269C479.9 46.7451 479.419 48.2726 479.419 49.842Z" fill="#066FEF"/>
<path d="M61.5376 3.26386L60.9929 4.58211L56.719 14.7515C57.138 13.5797 56.258 12.3451 55.001 12.3451H20.0135C18.7146 12.3451 17.8346 13.6634 18.3374 14.8561L26.7177 34.86C27.011 35.5296 27.6605 35.969 28.3937 35.969H45.0285C46.3275 35.969 47.1864 37.2663 46.7255 38.459L46.2017 39.7145L41.9278 49.9047C42.3468 48.733 41.4879 47.4775 40.2099 47.4775H34.7418C33.4428 47.4775 32.5629 48.7957 33.0657 49.9884L47.2283 83.7816C47.8359 85.2254 46.7674 86.8157 45.2171 86.8157H36.5016C35.6217 86.8157 34.8256 86.2926 34.4904 85.4765L1.15795 5.87943C0.152316 3.47311 1.91217 0.836609 4.51004 0.836609H59.8196C61.0767 0.836609 61.9566 2.09208 61.5376 3.26386Z" fill="#066FEF"/>
<path d="M78.2771 12.1568L62.1871 50.4278C61.3281 52.4575 59.3588 53.7758 57.1589 53.7758H43.0382C41.7393 53.7758 40.8594 52.4575 41.3622 51.2439L41.8859 50.0093C41.9069 49.9884 41.9069 49.9466 41.9278 49.9257L46.2018 39.7354C45.699 40.9281 46.5789 42.2673 47.8778 42.2673H51.6908C52.4241 42.2673 53.0945 41.8278 53.3669 41.1583L61.7681 21.1544C62.2709 19.9617 61.391 18.6225 60.092 18.6225H57.8294C56.5304 18.6225 55.6505 17.3042 56.1533 16.0906L56.6771 14.8561C56.698 14.8142 56.698 14.7933 56.719 14.7514L60.9719 4.60303C60.4691 5.79573 61.3491 7.1349 62.648 7.1349H74.925C77.5229 7.11398 79.2828 9.7714 78.2771 12.1568Z" fill="#A1CBFD"/>
</svg>
