<?xml version="1.0" encoding="UTF-8"?>
<svg width="208px" height="58px" viewBox="0 0 208 58" version="1.1" xmlns="http://www.w3.org/2000/svg" xmlns:xlink="http://www.w3.org/1999/xlink">
    <!-- Generator: Sketch 48.2 (47327) - http://www.bohemiancoding.com/sketch -->
    <title>RapidAPI Logo Blue</title>
    <desc>Created with Sketch.</desc>
    <defs></defs>
    <g id="Colors-and-Type" stroke="none" stroke-width="1" fill="none" fill-rule="evenodd">
        <g id="Logo" transform="translate(0.000000, 0.256121)">
            <g id="No">
                <path d="M28.7664491,0.340114607 C13.0670182,0.340114607 0.340229027,13.0667131 0.340229027,28.766144 C0.340229027,44.4651935 13.0670182,57.1919827 28.7664491,57.1919827 C44.46588,57.1919827 57.1926692,44.4651935 57.1926692,28.766144 C57.1926692,13.0667131 44.46588,0.340114607 28.7664491,0.340114607" id="Fill-1" fill="#1D4371"></path>
                <path d="M49.6934043,41.3616167 L47.8083284,41.5279077 L42.1550077,41.9857799 C41.5148256,41.9977941 40.9291839,41.7552228 40.4941957,41.3515096 L38.4445452,39.3768044 L36.4124391,37.4720863 C36.1795936,37.2743297 35.869705,37.1652489 35.5357882,37.1955703 C34.9512907,37.2489665 34.5016186,37.7096993 34.4634784,38.295341 C34.4447898,38.5817733 34.5273631,38.8472287 34.6785888,39.060432 L34.7010914,39.0993349 L38.2681471,43.3511966 L39.5458414,44.7457904 C40.2985369,45.471025 40.3208488,46.6690065 39.595805,47.4215112 C38.8705704,48.1743974 37.6725889,48.1967093 36.9198935,47.4714748 L35.4694243,46.2561395 L30.0582934,41.6442351 L29.7985592,41.4234037 C29.5872628,41.2311775 29.3048352,41.116185 28.9966629,41.121906 C28.6884907,41.127627 28.4106398,41.2532987 28.2065901,41.453153 L27.9552467,41.6835194 L22.7197511,46.4935619 L21.3154315,47.7621026 C20.5903876,48.5149887 19.3922155,48.5373007 18.6397107,47.8120661 C17.8870152,47.0868316 17.8647033,45.8888501 18.5897471,45.1363453 L19.8146174,43.6948391 L23.2209124,39.313301 L23.2416988,39.2736353 C23.3849149,39.0549017 23.4577626,38.7863951 23.4283947,38.5009163 C23.368324,37.9171816 22.9018702,37.4734212 22.3158471,37.4419556 C21.9809768,37.4242204 21.6752836,37.5445525 21.4500662,37.7506999 L19.4902356,39.7297913 L17.5157211,41.7796325 C17.0961797,42.1995554 16.5196916,42.4634851 15.8795095,42.4754992 L10.2132211,42.2285419 L8.32318702,42.1326194 C7.27833816,42.1520709 6.41541773,41.3206161 6.39596626,40.2757672 C6.3765148,39.2307277 7.20777892,38.3679979 8.25281848,38.3483558 L10.1380851,38.1952231 L14.356002,37.6696521 C15.4572983,37.4451975 16.2765483,36.4611821 16.2548084,35.2971454 L16.0112837,22.2249973 C15.8812258,15.2503118 21.4300426,9.49096151 28.4049188,9.36109437 C35.3796043,9.23122723 41.1391453,14.7796626 41.2690125,21.7545388 L41.5127279,34.8264962 C41.5342771,35.9905329 42.3895695,36.9434641 43.4984938,37.1265367 L47.7331924,37.4949704 L49.6228451,37.5775437 C50.6678846,37.5580923 51.5308051,38.3893564 51.5502565,39.4343959 C51.569708,40.4792448 50.7384439,41.3421652 49.6934043,41.3616167" id="Fill-5" fill="#FFFFFF"></path>
                <path d="M37.3557398,21.1719293 C35.8551164,20.1389039 34.3258879,19.1426837 32.7638589,18.2055807 C31.9449903,17.7143358 30.9914871,18.3779741 31.004264,19.3345285 C31.0109385,19.8452249 31.2742961,20.1779975 31.6864002,20.4404016 C32.5024083,20.9602515 33.309072,21.4945948 34.1983092,22.0743247 C33.2428989,22.6460453 32.3656759,23.1435833 31.518393,23.6874615 C30.9045276,24.0814491 30.7676045,24.7788413 31.1238333,25.3730646 C31.4569873,25.9289569 32.1553331,26.16657 32.7468865,25.8294112 C34.2759243,24.9575278 35.7965713,24.0682907 37.2867062,23.1317598 C38.0148013,22.6740783 38.0573275,21.6551647 37.3557398,21.1719293" id="Fill-7" fill="#1D4371"></path>
                <path d="M25.5086909,23.5465528 C24.729488,23.0745687 23.9438013,22.6130731 23.0391175,22.0747252 C23.9233964,21.5010977 24.7046969,20.999555 25.4804672,20.4898121 C26.280075,19.9642411 26.4866038,19.2580766 26.0418899,18.6030199 C25.6156739,17.9758055 24.9049326,17.8943763 24.1243948,18.3964911 C22.815807,19.2384345 21.5087448,20.0830476 20.2060686,20.9343353 C19.1144981,21.6477465 19.1347124,22.660939 20.2564136,23.332396 C21.5733923,24.1207525 22.8964734,24.8990018 24.2203173,25.676107 C25.0023806,26.1351234 25.7331455,26.0146006 26.1206492,25.3755627 C26.5129205,24.7285154 26.278168,24.0122438 25.5086909,23.5465528" id="Fill-9" fill="#1D4371"></path>
            </g>
            <g id="Blue" transform="translate(67.000000, 12.000000)" fill="#1D4371">
                <path d="M8.63654939,6.58293912 C7.57510958,6.58293912 6.59338264,6.62279556 5.69174998,6.70231773 L5.69174998,15.6158567 L7.88080272,15.6158567 C9.10071477,15.6158567 10.1741687,15.5498743 11.1038344,15.416956 C12.0321651,15.2846097 12.807554,15.0458525 13.4315265,14.7006843 C14.0543548,14.356279 14.5253854,13.8917322 14.8438555,13.3079975 C15.1621349,12.7246442 15.3213699,11.9816745 15.3213699,11.079279 C15.3213699,10.2310425 15.1621349,9.51458019 14.8438555,8.93084551 C14.5253854,8.34749222 14.068276,7.88294544 13.4710015,7.53796797 C12.8744899,7.1935626 12.1645114,6.94774946 11.3420195,6.80148206 C10.5193369,6.65616817 9.61770423,6.58293912 8.63654939,6.58293912 M8.27803217,2.24564357 C12.2575733,2.24564357 15.3017278,2.97526425 17.4110676,4.43393351 C19.5198354,5.89336558 20.5742193,8.12170265 20.5742193,11.1191354 C20.5742193,14.8597287 18.7303347,17.3935682 15.0431377,18.7197005 C15.5467781,19.3301333 16.1171637,20.0725309 16.7539132,20.9480376 C17.3906627,21.8235443 18.0401891,22.77228 18.7036366,23.7931006 C19.3670842,24.8146839 20.0038337,25.862584 20.6136943,26.9368007 C21.2237457,28.0113989 21.7680054,29.0657828 22.2455198,30.1003338 L16.634916,30.1003338 C16.1305128,29.145305 15.5862531,28.1841737 15.0030905,27.2154144 C14.4197373,26.2474179 13.8289467,25.3053567 13.2322443,24.3901843 C12.6357327,23.4748212 12.0449421,22.6130449 11.4615888,21.8037114 C10.8778541,20.9947592 10.3334038,20.2714317 9.83033545,19.6346822 C9.45846919,19.661571 9.14018981,19.6745386 8.87530661,19.6745386 L8.11898783,19.6745386 L5.69174998,19.6745386 L5.69174998,30.1003338 L0.678229927,30.1003338 L0.678229927,2.92186807 C1.89756987,2.65698487 3.1977669,2.47810766 4.57748609,2.38466434 C5.95663318,2.29217453 7.19065708,2.24564357 8.27803217,2.24564357" id="Fill-11"></path>
                <path d="M71.4241086,3.20042451 C71.4241086,4.10262928 71.1325273,4.81890091 70.5491741,5.34943012 C69.9646766,5.88034072 69.2758658,6.14503322 68.4798813,6.14503322 C67.6573894,6.14503322 66.9544668,5.88034072 66.3711135,5.34943012 C65.7866161,4.81890091 65.4950348,4.10262928 65.4950348,3.20042451 C65.4950348,2.27247515 65.7866161,1.54304517 66.3711135,1.01194386 C66.9544668,0.481605361 67.6573894,0.216150058 68.4798813,0.216150058 C69.2758658,0.216150058 69.9646766,0.481605361 70.5491741,1.01194386 C71.1325273,1.54304517 71.4241086,2.27247515 71.4241086,3.20042451" id="Fill-13"></path>
                <path d="M31.9924016,26.7178764 C33.4785317,26.7178764 34.6053818,26.6383542 35.3746683,26.4791192 L35.3746683,21.1469384 C35.1097851,21.0674162 34.7245698,20.987894 34.2209293,20.9081811 C33.7165261,20.828659 33.1600616,20.7888025 32.550201,20.7888025 C32.0190996,20.7888025 31.4817052,20.828659 30.9380177,20.9081811 C30.3943301,20.987894 29.903276,21.1339707 29.4659994,21.3460298 C29.02796,21.5586611 28.6764987,21.8572983 28.4116155,22.2415601 C28.1453974,22.6262033 28.0130511,23.1105829 28.0130511,23.6939362 C28.0130511,24.8348982 28.3713776,25.6238268 29.0876493,26.0614848 C29.8039209,26.4993335 30.7724895,26.7178764 31.9924016,26.7178764 M31.5951721,8.77161047 C33.1867597,8.77161047 34.5252876,8.97070194 35.6139976,9.3685035 C36.7015634,9.76649575 37.5700141,10.3235323 38.2201126,11.0396133 C38.8702112,11.7558849 39.3343765,12.6254799 39.6124181,13.6463004 C39.8914131,14.6676931 40.0308153,15.7886315 40.0308153,17.0087343 L40.0308153,29.6228194 C39.2878456,29.7820544 38.1665258,29.9746621 36.6683815,30.1998795 C35.1694744,30.4247156 33.4785317,30.5381825 31.5951721,30.5381825 C30.3472271,30.5381825 29.2074093,30.4188039 28.1720955,30.1800467 C27.1381165,29.9412895 26.2555539,29.5570277 25.5259333,29.0261171 C24.7963126,28.4955878 24.2257362,27.8060143 23.8151577,26.9566336 C23.4032443,26.1080157 23.1982411,25.0606878 23.1982411,23.8133148 C23.1982411,22.6195288 23.4299424,21.6114851 23.8946799,20.7888025 C24.3582732,19.9668827 24.9893016,19.2967607 25.7845233,18.7793898 C26.5803172,18.2620189 27.5023548,17.8909155 28.5502549,17.6651259 C29.5983456,17.4400991 30.6922045,17.3272044 31.8331665,17.3272044 C32.3642678,17.3272044 32.9207323,17.360577 33.504467,17.4263687 C34.0878203,17.4929232 34.7112207,17.6056273 35.3746683,17.7648624 L35.3746683,16.9688778 C35.3746683,16.4118413 35.3083044,15.8815027 35.1759582,15.3770995 C35.0428491,14.8736498 34.8111478,14.4289359 34.4793287,14.0442927 C34.1477003,13.6598402 33.710233,13.3613937 33.1665455,13.1487625 C32.6226672,12.9365126 31.9388147,12.8302924 31.117467,12.8302924 C30.0033938,12.8302924 28.981429,12.9100052 28.0530983,13.0692403 C27.1240047,13.2282846 26.3676859,13.4142178 25.7845233,13.6262769 L25.1885838,9.72663931 C25.7978724,9.51458019 26.6859653,9.30271177 27.8538161,9.08988985 C29.0214762,8.87783073 30.2680863,8.77161047 31.5951721,8.77161047" id="Fill-15"></path>
                <path d="M58.2032331,19.7939935 C58.2032331,17.6453693 57.7186628,15.9740688 56.750857,14.7802828 C55.7824791,13.586306 54.2238827,12.989413 52.0754492,12.989413 C51.6234887,12.989413 51.1530302,13.0096273 50.661976,13.0494837 C50.1711125,13.0891494 49.6878771,13.1753461 49.2103626,13.3078831 L49.2103626,25.2060779 C49.6344809,25.4982313 50.1978106,25.7697891 50.901496,26.0217046 C51.6038465,26.2740016 52.3538721,26.3996733 53.1490938,26.3996733 C54.8999165,26.3996733 56.1797086,25.802971 56.9896142,24.6091849 C57.798185,23.4152081 58.2032331,21.8104622 58.2032331,19.7939935 M63.1378031,19.7144714 C63.1378031,21.3062497 62.931465,22.765491 62.5206958,24.0918141 C62.1087824,25.4187092 61.519136,26.5589083 60.7500403,27.5137465 C59.9803725,28.4687753 59.0188598,29.2119358 57.8645488,29.7422743 C56.7108099,30.2726128 55.4043197,30.5382588 53.9448876,30.5382588 C52.9637328,30.5382588 52.061528,30.4188802 51.2396082,30.180123 C50.4169257,29.9413657 49.740129,29.6762918 49.2103626,29.3841384 L49.2103626,37.4620272 L44.3955527,37.4620272 L44.3955527,9.96547281 C45.3761354,9.7005896 46.5832705,9.44810195 48.0158138,9.20934473 C49.4485478,8.97058752 50.961376,8.85120892 52.5531543,8.85120892 C54.1969939,8.85120892 55.6692029,9.10350587 56.9693999,9.60733699 C58.2694063,10.1117402 59.377377,10.8346864 60.2923587,11.7759848 C61.2071497,12.718046 61.9100723,13.8590079 62.4016986,15.1979172 C62.89199,16.5379707 63.1378031,18.0433616 63.1378031,19.7144714" id="Fill-17"></path>
                <polygon id="Fill-19" points="66.052796 30.1004101 70.867606 30.1004101 70.867606 9.2888669 66.052796 9.2888669"></polygon>
                <path d="M112.289579,21.9816351 C111.665798,20.2874505 111.048309,18.647425 110.435016,17.0602235 C109.821913,15.4734034 109.183829,13.9497052 108.521716,12.4895103 C107.839961,13.9497052 107.192723,15.4734034 106.57943,17.0602235 C105.966327,18.647425 105.35742,20.2874505 104.754043,21.9816351 L112.289579,21.9816351 Z M114.947184,29.4874219 C114.615746,28.6111524 114.304904,27.7497576 114.012369,26.9026653 C113.720025,26.055573 113.418337,25.1941782 113.106732,24.3179087 L103.9367,24.3179087 L102.096439,29.4874219 L99.1464908,29.4874219 C99.9249308,27.3458536 100.655505,25.3648553 101.336688,23.5438548 C102.018061,21.7234264 102.684941,19.9952971 103.337138,18.3600391 C103.989906,16.7243996 104.637144,15.1617985 105.279424,13.6724264 C105.922466,12.1828637 106.593732,10.7079849 107.294748,9.24759928 L109.894761,9.24759928 C110.595776,10.7079849 111.267043,12.1828637 111.910085,13.6724264 C112.552365,15.1617985 113.199412,16.7243996 113.851608,18.3600391 C114.503805,19.9952971 115.170303,21.7234264 115.852821,23.5438548 C116.534004,25.3648553 117.264006,27.3458536 118.042827,29.4874219 L114.947184,29.4874219 Z" id="Fill-21"></path>
                <path d="M126.249191,11.5256902 C125.041865,11.5256902 124.11773,11.5546767 123.474878,11.6132218 L123.474878,19.5574294 L125.606911,19.5574294 C126.580629,19.5574294 127.456517,19.4943075 128.235338,19.3676822 C129.013588,19.2412477 129.671314,19.0270909 130.206802,18.725021 C130.742098,18.4233326 131.1563,18.0095122 131.448072,17.4837505 C131.739844,16.9579888 131.886302,16.2863412 131.886302,15.4684261 C131.886302,14.689986 131.734886,14.0473248 131.433198,13.5410146 C131.131509,13.0347044 130.722266,12.6309911 130.206802,12.3287306 C129.690575,12.0270422 129.091584,11.8178436 128.410211,11.7009441 C127.729028,11.5842353 127.00837,11.5256902 126.249191,11.5256902 M126.015583,9.04314912 C128.857785,9.04314912 131.043787,9.58340406 132.572443,10.6639139 C134.10129,11.7444238 134.865237,13.3562257 134.865237,15.4974126 C134.865237,16.6658354 134.655657,17.6639626 134.23726,18.4912221 C133.8181,19.3190536 133.214723,19.9907013 132.426557,20.5065465 C131.637819,21.0227732 130.678976,21.3974999 129.549647,21.6309175 C128.420127,21.8647165 127.14434,21.981616 125.723811,21.981616 L123.474878,21.981616 L123.474878,29.4874029 L120.641639,29.4874029 L120.641639,9.53954291 C121.439721,9.34502825 122.331246,9.2138262 123.314117,9.14555537 C124.296989,9.07747524 125.19824,9.04314912 126.015583,9.04314912" id="Fill-22"></path>
                <polygon id="Fill-23" points="137.911661 29.4874982 140.745282 29.4874982 140.745282 9.24748486 137.911661 9.24748486"></polygon>
                <path d="M80.103124,19.6347585 C80.103124,21.7576381 80.6067644,23.4218827 81.6153801,24.6288271 C82.6232331,25.8365343 84.0163013,26.439339 85.7934406,26.439339 C86.5625364,26.439339 87.218928,26.4065385 87.7633783,26.339984 C88.3064938,26.2740016 88.751017,26.2005818 89.0959945,26.1214411 L89.0959945,14.1833898 C88.6720669,13.8918085 88.1077837,13.6202507 87.4048611,13.3677631 C86.7019385,13.1158475 85.9526757,12.989413 85.1566912,12.989413 C83.4064406,12.989413 82.1253137,13.586306 81.3167429,14.7802828 C80.5074094,15.9740688 80.103124,17.5925452 80.103124,19.6347585 Z M93.9108044,29.4636606 C92.9557756,29.7560047 91.7555057,30.0208879 90.3096134,30.2596451 C88.8642932,30.4984023 87.3451718,30.6177809 85.7532028,30.6177809 C84.1086004,30.6177809 82.63601,30.365484 81.3371479,29.8616529 C80.0369509,29.3580125 78.9289801,28.6350663 78.0139984,27.6930051 C77.0992074,26.751516 76.395522,25.6107447 75.9046585,24.270882 C75.413795,22.9314006 75.1687447,21.4256283 75.1687447,19.7541371 C75.1687447,18.1099161 75.3735572,16.6174928 75.7856613,15.2774394 C76.1962398,13.9385301 76.8005702,12.7905122 77.5957919,11.8354834 C78.3915857,10.8804545 79.3601543,10.14435 80.5011162,9.62697915 C81.6415061,9.109799 82.9542894,8.85120892 84.4404195,8.85120892 C85.4482725,8.85120892 86.3365561,8.97058752 87.1069867,9.20934473 C87.8760824,9.44810195 88.53953,9.71374795 89.0959945,10.0053292 L89.0959945,0.999491112 L93.9108044,0.999491112 L93.9108044,29.4636606 Z" id="Fill-24"></path>
            </g>
        </g>
    </g>
</svg>