<?xml version="1.0" encoding="utf-8"?>
<svg version="1.1" xmlns="http://www.w3.org/2000/svg" x="0" y="0" width="200px" height="80px" viewBox="180 120 500.9 395.3" xml:space="preserve">
  <path fill="#112857" d="M278.1 325c.9-.8 2.3-.8 3.2.1 2.3 2.5 7.2 6.7 14.5 6.7 5.3 0 11.3-2.3 11.3-6.5 0-4.5-3.9-6.8-11.9-8.4-11.2-2.3-19.2-6.7-19.2-16.6 0-7.6 7.6-15.1 19.3-15.1 8.7 0 14.8 4 17.6 6.3 1 .8 1.1 2.4.2 3.3L310 298c-.8.8-2.1.9-3 .2-2.1-1.7-6.2-4.4-11.6-4.4-6.7 0-10 3.3-10 6.7 0 4 4.1 6.1 12.7 7.9 10 2.2 18.5 5.9 18.5 16.6 0 10.1-10.7 15.3-20.8 15.3-11.1 0-18.2-6.2-21-9.3-.8-.9-.8-2.3.1-3.2l3.2-2.8zM375.7 313.2c0 1 0 1.8-.1 3.1h-42.3c.6 7.9 8.2 15.3 18 15.3 7.2 0 12-3.7 14.3-6 .9-.9 2.3-.9 3.2 0l2.9 3c.9.9.8 2.3 0 3.1-2.9 2.9-9.9 8.7-20.3 8.7-15.9 0-27.3-12-27.3-27.6 0-15.3 10.4-27.6 26.2-27.6 14.5.1 25.4 11.1 25.4 28zm-9.3-4.8c-.3-5.9-5.7-14.2-16.2-14.2-11.3 0-16 8.7-16.7 14.2h32.9zM431.4 305.4v31.4c0 1.2-1 2.2-2.2 2.2h-5c-1.2 0-2.2-1-2.2-2.2V307c0-9-5.6-12.8-12.6-12.8-8.5 0-13 8.8-13 8.8v33.8c0 1.2-1 2.2-2.2 2.2h-5c-1.2 0-2.2-1-2.2-2.2v-47.9c0-1.2 1-2.2 2.2-2.2h4.4c1.2 0 2.2 1 2.2 2.2v5.1s4.8-8.7 16.1-8.7c10.2 0 19.5 7.2 19.5 20.1zM484.6 293.2v-32.4c0-1.2 1-2.2 2.2-2.2h5c1.2 0 2.2 1 2.2 2.2v76.1c0 1.2-1 2.2-2.2 2.2h-4.2c-1.2 0-2.2-1-2.2-2.2v-5.4s-5.1 9-17.7 9c-14.2 0-25.4-12.1-25.4-27.6 0-15.4 11.2-27.6 25.4-27.6 11.5 0 16.9 7.9 16.9 7.9zm0 10.1s-5-9.1-15.4-9.1-17.4 8.4-17.4 18.7c0 10.3 6.7 18.7 17.4 18.7 10.4 0 15.4-9.1 15.4-9.1v-19.2zM553 332c-2.7 2.7-9 7.9-18.4 8.4-15.5.9-28.4-11.7-28.6-27.2-.1-15.4 11.5-27.8 27-27.8 9.7 0 16.3 4.9 19.2 7.6 1 .9.9 2.4 0 3.3l-3.2 2.8c-.8.8-2.1.8-3 0-2.1-1.9-6.5-4.9-13-4.9-10.5 0-17.5 8.4-17.5 18.7 0 10.3 6.9 18.7 17.5 18.7 7 0 11.6-3.5 13.8-5.8.9-.9 2.3-.9 3.2 0l2.9 3c1 .9 1 2.3.1 3.2zM566.3 258.5h5c1.2 0 2.2 1 2.2 2.2v76.1c0 1.2-1 2.2-2.2 2.2h-5c-1.2 0-2.2-1-2.2-2.2v-76.1c-.1-1.2.9-2.2 2.2-2.2zM639.5 312.9c0 15.4-11.6 27.6-27 27.6s-27-12.1-27-27.6c0-15.4 11.6-27.6 27-27.6s27 12.2 27 27.6zm-9.5 0c0-10.3-6.9-18.7-17.5-18.7-10.5 0-17.5 8.4-17.5 18.7 0 10.3 6.9 18.7 17.5 18.7s17.5-8.4 17.5-18.7zM650.4 320.4V289c0-1.2 1-2.2 2.2-2.2h5c1.2 0 2.2 1 2.2 2.2v29.9c0 9 5.6 12.8 12.6 12.8 8.8 0 13-8.6 13-8.6v-34c0-1.2 1-2.2 2.2-2.2h5c1.2 0 2.2 1 2.2 2.2V337c0 1.2-1 2.2-2.2 2.2h-4.4c-1.2 0-2.2-1-2.2-2.2v-6s-4.8 9.4-16.1 9.4c-10.2.1-19.5-7.1-19.5-20zM748.4 293.2v-32.4c0-1.2 1-2.2 2.2-2.2h5c1.2 0 2.2 1 2.2 2.2v76.1c0 1.2-1 2.2-2.2 2.2h-4.2c-1.2 0-2.2-1-2.2-2.2v-5.4s-5.1 9-17.7 9c-14.2 0-25.4-12.1-25.4-27.6 0-15.4 11.2-27.6 25.4-27.6 11.6 0 16.9 7.9 16.9 7.9zm0 10.1s-5-9.1-15.4-9.1-17.4 8.4-17.4 18.7c0 10.3 6.7 18.7 17.4 18.7 10.4 0 15.4-9.1 15.4-9.1v-19.2z"/>
  <path fill="#1d97ff" d="M238.3 316.6c0-16.4-12.5-30-28.5-31.7-2.3-8.3-7.2-15.7-13.8-21.3-7.6-6.3-17.4-9.8-27.3-9.8-10 0-19.7 3.5-27.3 9.8-6.7 5.5-11.5 13-13.8 21.3-16 1.7-28.5 15.3-28.5 31.7 0 1.6.2 12.8 8.6 21.4 6.4 6.6 15.7 9.9 27.5 9.9 11.4 0 22.7-2 33.5-5.9 3.4 1.2 6.9 2.3 10.4 3.1 7.6 1.8 15.3 2.8 23.1 2.8 11.9 0 21.2-3.3 27.5-9.9 8.4-8.5 8.6-19.6 8.6-21.4 0 .1 0 0 0 0zm-8.7.1c0 .1.1 8.9-6.2 15.3-4.7 4.8-11.8 7.2-21.2 7.2-15.9 0-28.8-4.3-36.8-7.9-7.5-3.4-12.3-6.9-13.5-7.8l-.3-.3c0-.1-.1-.2-.1-.4v-18.2c0-.3.2-.6.5-.8l16.3-8.4c.3-.1.6-.1.8 0l16.3 8.4c.3.2.5.5.5.8v18.2c0 .3-.1.5-.2.6-.8.7-3.6 2.7-8 5.1 3.6 1.1 7.7 2 12.1 2.7 1-.7 1.5-1.1 1.6-1.2l.1-.1c1.5-1.3 3.2-3.9 3.2-7.2v-18.2c0-3.6-2-6.9-5.2-8.6l-16.3-8.4c-2.8-1.4-6-1.4-8.8 0l-16.3 8.4c-3.2 1.7-5.2 4.9-5.2 8.6v18.2c0 3.3 1.7 5.9 3.2 7.2l.1.1c.2.2 3.9 3.1 10.4 6.6-6.9 1.7-14.1 2.6-21.3 2.6-9.4 0-16.5-2.4-21.2-7.2-6.3-6.4-6.2-15.3-6.2-15.4v-.1c0-12.8 10.4-23.2 23.2-23.2h3.6l.7-3.5c1.5-7.6 5.6-14.6 11.6-19.6 6.1-5 13.8-7.8 21.7-7.8 7.9 0 15.7 2.8 21.7 7.8s10.1 11.9 11.6 19.6l.7 3.5h3.6c12.8 0 23.2 10.4 23.2 23.2l.1.2z"/>
</svg>
