<svg width="480" height="84" viewBox="0 0 480 84" fill="none" xmlns="http://www.w3.org/2000/svg">
<g clip-path="url(#clip0)">
<path d="M36.5 83.1L47.5 64.1L58.5 83.1H76L47.5 33.8L19 83.1H36.5Z" fill="#36495E"/>
<path d="M47.5 33.8V64.1L58.5 83.1H76L47.5 33.8Z" fill="url(#paint0_linear)"/>
<path d="M115.5 83.1L104.5 64.1L93.5 83.1H76L104.5 33.8L133 83.1H115.5Z" fill="#36495E"/>
<path d="M104.5 33.8V64.1L93.5 83.1H76L104.5 33.8Z" fill="url(#paint1_linear)"/>
<path d="M104.5 0.900024L76 50.2L47.5 0.900024L0 83.1H19L47.5 33.8L76 83.1L104.5 33.8L133 83.1H152L104.5 0.900024Z" fill="url(#paint2_linear)"/>
<path d="M178.9 35.6H189.7L178 71.2H166.7L155.1 35.6H165.9L170.7 53.6C171.7 57.6 172.3 60.4 172.4 62C172.5 60.9 172.7 59.4 173.1 57.7C173.4 56 173.7 54.7 174 53.7L178.9 35.6Z" fill="#36495E"/>
<path d="M212.6 71.2L211.4 67.8H210.8C210 69.1 208.9 70 207.5 70.7C206.1 71.4 204.4 71.7 202.5 71.7C199.5 71.7 197.1 70.8 195.4 69.1C193.7 67.3 192.9 64.9 192.9 61.6V43.6H202.4V58.7C202.4 60.5 202.7 61.9 203.2 62.8C203.7 63.7 204.5 64.2 205.7 64.2C207.3 64.2 208.5 63.6 209.2 62.3C209.9 61 210.2 58.8 210.2 55.8V43.6H219.7V71.2H212.6Z" fill="#36495E"/>
<path d="M239.6 71.6999C235 71.6999 231.4 70.5 228.9 68C226.4 65.6 225.1 62.0999 225.1 57.5999C225.1 52.8999 226.3 49.4 228.6 46.9C231 44.4 234.3 43.2 238.7 43.2C242.9 43.2 246.1 44.3 248.3 46.4C250.6 48.6 251.7 51.6999 251.7 55.7999V60H234.7C234.8 61.5 235.3 62.6999 236.4 63.5999C237.5 64.4999 238.9 64.9 240.7 64.9C242.4 64.9 243.9 64.7 245.3 64.4C246.7 64.1 248.2 63.4999 249.9 62.7999V69.5999C248.4 70.3999 246.9 70.8999 245.3 71.1999C243.7 71.4999 241.8 71.6999 239.6 71.6999ZM239.1 49.5999C238 49.5999 237 50 236.3 50.7C235.5 51.4 235.1 52.5 235 54H243.2C243.2 52.7 242.8 51.5999 242.1 50.7999C241.4 49.9999 240.3 49.5999 239.1 49.5999Z" fill="#36495E"/>
<path d="M286.1 71.2L278.8 45.6H278.6C278.9 50 279.1 53.4 279.1 55.8V71.2H270.6V35.6H283.4L290.8 60.8H291L298.3 35.6H311.1V71.2H302.3V55.6C302.3 54.8 302.3 53.9 302.3 52.9C302.3 51.9 302.4 49.5 302.6 45.6H302.4L295.2 71.2H286.1Z" fill="#36495E"/>
<path d="M336.2 71.1999L334.4 67.5999H334.2C332.9 69.1999 331.6 70.3 330.3 70.9C329 71.5 327.3 71.8 325.1 71.8C322.5 71.8 320.5 71 319 69.5C317.5 67.9 316.8 65.8 316.8 62.9C316.8 60 317.8 57.7999 319.9 56.2999C321.9 54.8999 324.9 54.1 328.8 53.9L333.4 53.7999V53.4C333.4 51.1 332.3 50 330 50C328 50 325.4 50.7 322.3 52L319.6 45.7C322.8 44 326.9 43.2 331.8 43.2C335.3 43.2 338.1 44.0999 340 45.7999C341.9 47.5999 342.9 49.9999 342.9 53.0999V71.1999H336.2V71.1999ZM329.1 64.9C330.3 64.9 331.2 64.4999 332.1 63.7999C333 63.0999 333.3 62.1 333.3 61V58.9L331.1 59C328 59.1 326.4 60.3 326.4 62.5C326.4 64.1 327.3 64.9 329.1 64.9Z" fill="#36495E"/>
<path d="M370.5 62.6999C370.5 65.6999 369.5 67.8999 367.5 69.3999C365.5 70.8999 362.6 71.6999 358.8 71.6999C356.8 71.6999 355 71.5999 353.5 71.3999C352 71.1999 350.5 70.7999 348.9 70.1999V62.5999C350.4 63.1999 352 63.7999 353.8 64.1999C355.6 64.5999 357.1 64.7999 358.5 64.7999C360.6 64.7999 361.6 64.2999 361.6 63.3999C361.6 62.8999 361.3 62.4999 360.7 62.0999C360.1 61.6999 358.5 60.9999 355.7 59.8999C353.2 58.8999 351.4 57.6999 350.4 56.3999C349.4 55.0999 348.9 53.3999 348.9 51.3999C348.9 48.7999 349.9 46.7999 351.9 45.3999C353.9 43.9999 356.7 43.2999 360.3 43.2999C362.1 43.2999 363.8 43.4999 365.4 43.8999C367 44.2999 368.7 44.8999 370.4 45.5999L367.8 51.6999C366.5 51.0999 365.2 50.6999 363.8 50.2999C362.4 49.8999 361.2 49.6999 360.3 49.6999C358.7 49.6999 358 50.0999 358 50.7999C358 51.2999 358.3 51.6999 358.8 51.9999C359.3 52.2999 360.9 52.9999 363.5 53.9999C365.4 54.7999 366.9 55.5999 367.8 56.2999C368.7 56.9999 369.4 57.9999 369.9 58.9999C370.4 59.9999 370.5 61.1999 370.5 62.6999Z" fill="#36495E"/>
<path d="M389.3 64.1C390.6 64.1 392.1 63.8 393.9 63.2V70.1C392.6 70.7 391.4 71 390.2 71.3C389 71.5 387.7 71.7 386.1 71.7C382.9 71.7 380.6 70.9 379.2 69.4C377.8 67.8 377.1 65.4 377.1 62.2V50.7H373.8V46.8L378 43.8L380.5 38H386.7V43.5H393.5V50.6H386.7V61.3C386.7 63.3 387.6 64.1 389.3 64.1Z" fill="#36495E"/>
<path d="M412 71.6999C407.4 71.6999 403.8 70.5 401.3 68C398.8 65.6 397.5 62.0999 397.5 57.5999C397.5 52.8999 398.7 49.4 401 46.9C403.4 44.4 406.7 43.2 411.1 43.2C415.3 43.2 418.5 44.3 420.7 46.4C423 48.6 424.1 51.6999 424.1 55.7999V60H407.1C407.2 61.5 407.7 62.6999 408.8 63.5999C409.9 64.4999 411.3 64.9 413.1 64.9C414.8 64.9 416.3 64.7 417.7 64.4C419.1 64.1 420.6 63.4999 422.3 62.7999V69.5999C420.8 70.3999 419.3 70.8999 417.7 71.1999C416.1 71.4999 414.2 71.6999 412 71.6999ZM411.5 49.5999C410.4 49.5999 409.4 50 408.7 50.7C407.9 51.4 407.5 52.5 407.4 54H415.6C415.6 52.7 415.2 51.5999 414.5 50.7999C413.8 49.9999 412.7 49.5999 411.5 49.5999Z" fill="#36495E"/>
<path d="M446.2 43.1C447 43.1 447.8 43.2 448.6 43.3L449.1 43.4L448.2 52.4C447.4 52.2 446.3 52.1 445 52.1C442.9 52.1 441.4 52.6 440.5 53.5C439.6 54.4 439.1 55.8 439.1 57.6V71.1H429.6V43.6H436.7L438.2 48H438.7C439.5 46.5 440.6 45.4 442 44.5C443.3 43.6 444.7 43.1 446.2 43.1Z" fill="#36495E"/>
<path d="M449.6 43.6H459.6L464.3 59.4C464.5 60.2 464.7 61.2 464.8 62.4H465C465.1 61.3 465.3 60.3 465.6 59.5L470.4 43.6H480.1L469.2 72.9C467.8 76.6 466.1 79.3 464.1 80.8C462.1 82.3 459.4 83.1 456.1 83.1C454.8 83.1 453.5 83 452.2 82.7V75.2C453.1 75.4 454 75.5 455.1 75.5C455.9 75.5 456.7 75.3 457.3 75C457.9 74.7 458.5 74.2 459 73.6C459.5 73 460 72 460.5 70.7L449.6 43.6Z" fill="#36495E"/>
</g>
<defs>
<linearGradient id="paint0_linear" x1="61.7617" y1="83.1439" x2="61.7617" y2="33.7713" gradientUnits="userSpaceOnUse">
<stop stop-color="#36495E"/>
<stop offset="1" stop-color="#0A1C33"/>
</linearGradient>
<linearGradient id="paint1_linear" x1="90.2671" y1="83.1439" x2="90.2671" y2="33.7713" gradientUnits="userSpaceOnUse">
<stop stop-color="#36495E"/>
<stop offset="1" stop-color="#0A1C33"/>
</linearGradient>
<linearGradient id="paint2_linear" x1="76.0144" y1="83.1439" x2="76.0144" y2="0.856122" gradientUnits="userSpaceOnUse">
<stop offset="0.2" stop-color="#41B782"/>
<stop offset="1" stop-color="#86D169"/>
</linearGradient>
<clipPath id="clip0">
<rect width="480" height="84" fill="white"/>
</clipPath>
</defs>
</svg>
