<svg xmlns="http://www.w3.org/2000/svg" viewBox="0 0 445.09 557.66"><defs><style>.cls-1{fill:#56a4cb;}.cls-2{fill:#277dad;}.cls-3{fill:#ddedf5;}.cls-4{fill:#083751;}.cls-5{fill:#e61c3f;}.cls-6{fill:#fff;}.cls-7{fill:#9ea7ac;}.cls-8{fill:#e5ecef;}.cls-9{fill:#ffce55;}.cls-10{fill:#f0abab;}.cls-11{fill:#082e44;}</style></defs><title>Element 1</title><g id="Ebene_2" data-name="Ebene 2"><g id="CHARACTER"><path class="cls-1" d="M116.49,533c-24.16,0-45.43-6-63.22-18-24.12-16.15-39.62-42-44.82-74.67C3.56,409.64,7.91,373.4,21,335.53s34.7-76.5,62.51-112c41.14-52.49,92.26-93.82,143.93-116.38C255.15,95.08,281.51,89,305.83,89c24.16,0,45.43,6,63.22,18,17.57,11.77,30.69,28.9,38.47,50.07a52.45,52.45,0,0,0,3.68-8.64l8-25.78,4.63,26.59c9.55,54.93-5.45,104.87-22.15,140.26a75.91,75.91,0,0,0,12.22-9.08l19.66-18.47-9.09,25.4c-14.74,41.17-39.54,78.52-73.81,111.24,7.66-.7,15.52-2.07,21.72-4.64l24.93-10.32-17.5,20.54c-42.3,49.68-100.79,75.27-142.74,88a309.76,309.76,0,0,1-42.19,22.64C167.17,526.83,140.8,533,116.49,533ZM305.75,131.91c-18.24,0-38.79,4.93-61.08,14.66-45.27,19.76-90.47,56.52-127.29,103.49C68.32,312.65,42.85,383,50.91,433.57c3.32,20.87,12.17,36.25,26.29,45.71C87.83,486.39,101.07,490,116.57,490c18.24,0,38.79-4.93,61.08-14.66,45.27-19.76,90.47-56.52,127.29-103.49,49.06-62.6,74.53-132.91,66.47-183.51-3.32-20.87-12.17-36.25-26.29-45.71C334.49,135.52,321.25,131.91,305.75,131.91Z"/><path class="cls-2" d="M382.35,236.5c13.7-18.37,18.83-42.65,21.66-58.71C393.18,191.14,384.85,197,384.85,197,386.1,209.12,386.85,221,382.35,236.5Z"/><path class="cls-3" d="M201.75,135.6c114.1-72.27,186.47,5.23,187.6,24.4-4.63-30.25-26-51.5-51.34-63.45C316,85.16,249.85,101,249.85,101Z"/><path class="cls-2" d="M163,510.54c-20.42,13.59-71.65,8.17-82,4.46,0-13,4.21-26.86,4.21-26.86h25.14s-.32,10.23,26.18,3.73C150.85,499.21,163,510.54,163,510.54Z"/><path class="cls-3" d="M10.35,400.5c23.07-79.38,102-232,252.37-299-23.87-10.11-125.79,45.22-179.19,122C17.85,318,17.85,341.5,10.35,400.5Z"/><path class="cls-2" d="M338,324.67s25.38-8.55,41-20.34c12-20.07,32.34-68.22,32.34-110.33-29.34,68.48-50,76.43-50,76.43C350.45,303.33,346.34,308.23,338,324.67Z"/><path class="cls-2" d="M354,413.33c-47,36.57-79.07,51.22-120.55,65L206.85,493l-6.22-25.67S300.88,414.21,334.21,331c16.14,7.67,59.49-12.83,69.8-27.67-20,36-88,109.34-88,109.34Z"/><path class="cls-4" d="M305.83,95.45c22.6,0,42.82,5.62,59.6,16.86,20.07,13.44,33.76,34.16,40,60.27,5-7,9.66-14.9,12-22.32,10.1,58.09-7.68,110.67-27.64,148.38-.73,1.81-1.48,3.63-2.25,5.44,11-5,22.71-11.41,30.81-19-18.47,51.6-51,91.1-85.24,120.57h2.29c11.65,0,27.92-1,39.47-5.78-40.46,47.5-96,72.85-140.54,86.28a303.85,303.85,0,0,1-42.05,22.64c-27,11.78-52.62,17.67-75.77,17.67-22.6,0-42.82-5.62-59.6-16.86-22.58-15.12-37.11-39.43-42-70.29-4.72-29.64-.47-64.79,12.29-101.65C40,300.55,61.27,262.48,88.65,227.55c40.48-51.66,90.71-92.29,141.41-114.43,27-11.78,52.62-17.67,75.77-17.67M116.57,496.5c18.9,0,40.48-5.08,63.68-15.21,46.24-20.18,92.33-57.62,129.81-105.43,50.13-64,76.1-136.21,67.77-188.54-3.62-22.73-13.41-39.58-29.09-50.09-11.79-7.89-26.35-11.82-43-11.82-18.91,0-40.48,5.08-63.68,15.2-46.24,20.19-92.34,57.63-129.81,105.44-50.13,64-76.1,136.21-67.77,188.54,3.62,22.73,13.41,39.58,29.09,50.09,11.78,7.89,26.35,11.82,43,11.82m189.26-414h0c-25.22,0-52.46,6.31-81,18.76-52.64,23-104.65,65-146.44,118.32C50.16,255.58,28.19,295,14.88,333.41,1.42,372.28-3,409.61,2,441.35c5.5,34.53,22,61.87,47.62,79,18.88,12.65,41.37,19.06,66.84,19.06,25.21,0,52.46-6.31,81-18.76a314.34,314.34,0,0,0,42.33-22.63,360.92,360.92,0,0,0,72.74-31c50.74-28.88,69.44-49.3,105.07-94.83l-47.17,15.37c47.47-51.61,59.45-82.9,74.66-142L417.83,267.7C448,197.33,428,120.58,421.6,105c-4.18,12.33-11,29.65-14.59,34.89a104.75,104.75,0,0,0-34.34-38.38c-18.88-12.65-41.37-19.06-66.84-19.06ZM116.57,483.5c-14.19,0-26.22-3.24-35.75-9.62-12.56-8.42-20.46-22.32-23.49-41.33-7.78-48.88,17.19-117.26,65.16-178.48,36.17-46.14,80.48-82.2,124.78-101.54,21.46-9.37,41.14-14.12,58.48-14.12,14.19,0,26.21,3.24,35.75,9.62,12.56,8.42,20.46,22.32,23.49,41.33,7.78,48.88-17.19,117.26-65.16,178.48C263.66,414,219.35,450,175.05,469.38c-21.47,9.37-41.14,14.12-58.48,14.12Z"/><path class="cls-4" d="M116.57,483.5c-14.19,0-26.22-3.24-35.75-9.62-12.56-8.42-20.46-22.32-23.49-41.33-7.78-48.88,17.19-117.26,65.16-178.48,36.17-46.14,80.48-82.2,124.78-101.54,21.46-9.37,41.14-14.12,58.48-14.12,14.19,0,26.21,3.24,35.75,9.62,12.56,8.42,20.46,22.32,23.49,41.33,7.78,48.88-17.19,117.26-65.16,178.48C263.66,414,219.35,450,175.05,469.38c-21.47,9.37-41.14,14.12-58.48,14.12Z"/><path class="cls-5" d="M50.77,21.86c-.59,7.45-.08,43.12,13.38,49.19-9.33-22,.58-63,47.36-63.2-8.56,6.38-15.12,16.85-18,23.84a66.41,66.41,0,0,0-8.17,11c3.37-2,14.31-20.58,55.36-20.71,10.9,0,22.74,1.19,32.4,6.69-16.6-4.11-34.28,5-48.06,14.27,9.71-3.12,23.84-12.47,43.72-8.58,13.36,2.61,18.85,14.92,29.88,21.27,9,5.19,21.78,4.8,27.67-4.88a14.44,14.44,0,0,0,2.11-8A47.66,47.66,0,0,1,235,51.55,38.24,38.24,0,0,1,239.88,75c-9.73-.93-19.31,2.43-29.07,1.3a52.6,52.6,0,0,1-25.84-11,39.46,39.46,0,0,0,22.55,16.19c11.74,3.15,23.17-1.25,34.9.83,13.39,2.36,30.26,11.09,45.54.93a22.6,22.6,0,0,0,6.66-7.06,32.94,32.94,0,0,1,.54,20.87,24.19,24.19,0,0,1-5.86,10.23c-2.51,2.49-5.58,3.34-8.46,5.06-9.68-4-20.51-5.35-31-6,9.43,3,19.09,6,28,10.27s14.93,11,21.17,18.5c5.19,6.24,11.24,11.92,19.37,13.85a30.29,30.29,0,0,0,16.86-.82c1.45,8.15-6.1,21.44-16.63,23.2a71.46,71.46,0,0,0,16.33,7.71c-4,3.6-13.55,6.29-19.69,6.61,14.76,7.74,22.19,28.36,21.85,45.1-2.37-5.11-5.09-11-11.27-15.46,1.74,7.15,1.42,15.88.1,24-2.92-2.78-14-15.62-18.72-21.83,2.29-7.15,1.89-12.08.31-19.36-2,12-10.59,25.77-15,31.29,2-7.47,1.22-15.51,0-23a111.37,111.37,0,0,0-7.34-24.56c-7.29-17.79-7.29-17.79-13.59-33.28-3.65,14.79-6.78,21.69-11.63,27.68A59,59,0,0,0,259,162.1c-.34-1.94-3.37-17.11-17.56-37.48,1.23,9.44,5,20.65.53,31.21-.29-7.92-5.52-30.85-21.37-40,4.44,7.64,8.34,31.57,3,37.71.51-13.2-8.68-25.37-18.7-33.36-7.42-5.92-48.56-28.88-48.5-28.78s7.63,33.1-8.92,35.71c5.06-11.41-7.66-35.42-22-39.84,1.68-8.05,1.23-17.73-1.55-25C116.81,70,98.77,70.33,89,78.81c-4.2,3.62-8.67,9.14-10.48,15.55l-5.42,7.48a5,5,0,0,0-.7-1.81L45.41,74.37C39.26,62.67,37.58,34.43,50.77,21.86Z"/><path class="cls-6" d="M20.12,59.18,35.44,74.64c-.83,1.49-1.94,3.15-3.58,3.53a5.12,5.12,0,0,0,5.22-1.87l7.24,7.31c-1.47,3.31-3.89,7.37-7.65,8,4.81,1.38,8.49-1.68,10.2-5.42l9.22,9.3c-1.22,4.39-3.89,10-11.58,11,8.35,2,13.08-2.83,14.63-7.94l6.5,6.56c2.13,7-9.87,15.14-17,13.27Z"/><path class="cls-7" d="M79.36,493.63C78.2,509.07,73.85,538,57.6,545.28c-5-2-9.38-8.66-12.86-16.51,1.8-11.51,7-15,17-22.53,5.79-4.35,9.77-12,12.22-18.1C76.26,490.56,78.23,492.52,79.36,493.63Z"/><path class="cls-7" d="M187.33,460c1.77,4.22,4.15,10,6.54,16.07,1.5,3.82,3,7.76,4.35,11.54,3.57,9.93,6.16,18.66,5,20.67s-7.78,2.72-16.58,2c-5.28-7.53-5.12-13.13-4-22.34.15-1.28.33-2.64.51-4.08a30.76,30.76,0,0,0-.78-10.54,66.28,66.28,0,0,0-6-15.32A48.7,48.7,0,0,1,187.33,460Z"/><path class="cls-8" d="M346.34,291.57a377.35,377.35,0,0,1-46.28,75.29Q289.8,380,278.73,392c2.42-18.3-2.86-37.52-14.57-46.58,10.86,23.22,8,42.78-1.13,57.57C249.4,424.9,223.92,434.33,208.58,434a69.19,69.19,0,0,1-33-9.53S133,414,130.21,423.65,142.15,458,142.15,458s10.17-.48,11.08,6.84a29.42,29.42,0,0,1,14.19-6.41A21.67,21.67,0,0,1,176,469.7c2.76,8.63-.19,18.2-1.76,25.09a35,35,0,0,0-.74,3.87,13.63,13.63,0,0,0,.19,4.69,14.59,14.59,0,0,0,2.51,5.45A92.11,92.11,0,0,1,166,506.22,73.93,73.93,0,0,1,155.41,502a40.79,40.79,0,0,1-13.88-10.58c-15.65,1.07-21,4.42-25.79-4.31a52.36,52.36,0,0,1-3.52-8.78C106,459.07,92,439.49,86.28,431.53s1.52-24.7,15.21-30.72,69.35-20.28,77.58-31.27,4.48-34.4,44.47-49.31c-11.43-3.71-44.49,12.74-52.7,41.84-15.51,10.16-55.16,21.68-65.95,24.88-17.83,5.28-27.84,18.18-30.73,26.34-8.81,3.12-23.18,8.09-23.31,15-.15,7.73,5.35,18.91,5,34.93,0,2.52,2.54,6.74,6.07,11.28,2.22,2.87,4.82,5.87,7.35,8.65a22.42,22.42,0,0,1-7.11,14.05,51.94,51.94,0,0,1-9.39,7c-3.35,2.06-6.5,3.75-8.66,5.37A13.74,13.74,0,0,0,39.82,515a87.79,87.79,0,0,1-3.24-16.56c-8.61-11.77-11.75-15-13.34-20a7.56,7.56,0,0,1-.25-1.37s0,0,0,0c-.64-5.88.88-23.47,1.84-33.64,1.19-.14,3.7,1.56,8.52,4.28l1,.6-1.29-2c-7-10.74-14.93-22.58-11.44-33.33,1.88-5.78,5.55-9,11.36-12.47a.41.41,0,0,1,.11-.07c2.23-1.35,4.79-2.74,7.69-4.34,10.46-5.79,52.6-19.41,58.08-30.57a177.19,177.19,0,0,1,10.42-18,115.26,115.26,0,0,0,5.26,23.94c-.62-56,19.72-91.08,27.73-102.73a207.65,207.65,0,0,1,.05,33.6c11.18-10.49,11.89-56.72-2.36-94.21q-1.78-4.69-3.89-9.17c-1.5-3.19-3.12-6.28-4.86-9.24h0a40.17,40.17,0,0,0,3.59-19.62,44.65,44.65,0,0,0-1.66-9.4,39.77,39.77,0,0,0-7.88-15.08c1.58,7.09,3,13.21,3.17,19.28a37.55,37.55,0,0,1-1.72,12.55c-.36,1.13-.78,2.27-1.26,3.44.08-.81.14-1.61.16-2.41a38,38,0,0,0-1-10.08,39.24,39.24,0,0,0-1.8-5.67c-.11-.26-.51-.07-.45.19a36.16,36.16,0,0,1,.91,6.73,42.6,42.6,0,0,1-1.32,12.3,52.55,52.55,0,0,1-1.61,5.28,79.43,79.43,0,0,1-3.17,7.5c-7.87,9.66-20.41,12.69-26.86,24.16-.6-.25-1.28-.53-2-.82a52.11,52.11,0,0,0-7.47-2.3c-4.53-1-9.59-1.36-13.76.32A23.49,23.49,0,0,0,61,219a13.15,13.15,0,0,0-4.18,4.35c2.45-2.75,10-5,16-4.91a9.49,9.49,0,0,1,4.6,1.75,12.81,12.81,0,0,1,4.38,5.68c0,.16-.08.26-.09.32a2,2,0,0,0,.12-.23l0,.08c1.37,3.33,2.15,8.13,1.56,15.05C81.7,248,80.09,254.18,77.75,257c-4.46,5.44-19.09,14.16-26.95,15.69A14.18,14.18,0,0,1,49,273a17,17,0,0,1-6.17-.79c-.69-.19-1.39-.43-2.09-.7a51.78,51.78,0,0,1,4.21-3,45,45,0,0,1,4.78-2.69q2.89-1.39,5.45-2.68c12.41-6.16,19-10.26,21.06-14.06,1.89-3.49.47-8.34-2.48-12.55A25.35,25.35,0,0,0,69,231.33a20.26,20.26,0,0,0-2.79-1.94,9.84,9.84,0,0,1,4.35-.18,37.23,37.23,0,0,1,3.85.86c-.75-.84-4.56-1.76-5.66-2.4-3.6-2.12-6.8-1.21-9.25,1.55-3.2,3.6-7.59,16.36-15.07,25.1-5.1,6-14.75,8.19-20.37,9-8-5.66-13-13.42-13.65-19.58-.73-7.33,1-17.22,8.43-21.78,5.62-13.48,15.58-50.39,16.21-56.13s-6.37-21.12-5.74-28.31c.46-5.1,7.87-17.28,9.85-20.46l2.45,5.65c.06.06.31.35.74.74-3.65,9-4,20.43-1.75,29.51.53-5.75,1-11.43,2.61-17,1-3.53,2.29-6.94,3.54-10.36,3.55.77,9.13.24,17.35-4.92a20,20,0,0,0,8.14-8.88l6-6.87a20.87,20.87,0,0,0,1.86,4.82c0-4.42,3-11.79,6.49-17.31C93.09,82,105.56,78.87,113.48,75c-3.16,2.94-6.46,5.72-9.53,8.75-6.49,6.38-10.42,14-9.38,23.18,3.59-9.8,9.24-17,17.28-23.56,2-1.66,5-3.87,7.55-6.42-1.1,7.26-2,14.52-6.75,20.78-5.62,7.47-15.29,14.75-6.6,24.42-2.4-6.45,6.32-12.61,10-16.64a39.91,39.91,0,0,0,7.57-12.14c16,9.57,26.55,33.73,10.65,38.16,6.8,3.88,35.36,6.1,31.14-26.23,8,5,16.53,9.16,25,13.91l.67.37a86.14,86.14,0,0,1,7.35,4.62c7.77,5.46,12.59,11,15.45,16.25a29.6,29.6,0,0,1,3.29,9.16c1.5,8.37-1.46,14.65-2.93,16,7.82-.2,17-5.89,17.42-23.5,0-.68,0-1.38,0-2.09l.06.15c.19.56.37,1.1.56,1.64,5.86,17.9,5.92,28.06,5.92,28.06,5-4.47,10.62-10.27,11.36-21.23.35,1.83,5.54,19.93,4.32,38.22,3.57-1.21,12.81-3.27,18.12-17.5,1.67,5,6.9,15.64,10.24,27.41,2.22,7.81,3.88,16.16,3.53,24.32-.57,13.41-7,20-7.51,21.52.46.07,15.41,1.28,24.58-14.23C311.72,244.39,325.47,268.75,346.34,291.57Z"/><path class="cls-9" d="M66.54,169.91c3.44-6.18,9.14-14.86,16.58-21.22,2,1.75,3.18,5.67,3.58,8.15C88.28,166.32,79.83,162.94,66.54,169.91Z"/><path class="cls-6" d="M8.68,253.33s1.76-15.91,16.21-19.51c-1.89-7.52,3.7-21.45,13.7-18.57,2.18-19.5,7.51-44,7.51-44s10.68,3.25,12-2.5,6-24,22.78-29c-14.31,0-22.43,13.73-27.92,23.23-8.17-.25-14.74-8.25-12.16-20.75s4-20.75,4-20.75l-6.17-7.25s-15.31,15.29-12.74,25.52,9.45,22.89,6,30.14S15.6,218.13,15.6,218.13C4.8,231.26,3.84,240.55,8.68,253.33Z"/><path class="cls-6" d="M234.68,324.67c-12.08,0-45.74,23.83-45.74,48.66-18.55,8-64.59,24.84-64.59,24.84L195,386.5s20.41,8.5,34.09,0,10.28-25.08,10.28-25.08C222.55,376,195.44,346.67,234.68,324.67Z"/><path class="cls-6" d="M171.06,161.73C194,183.79,241.69,237,222.6,284,216.66,250.42,195.44,202,171.06,161.73Z"/><path class="cls-7" d="M14.35,257.67S20,262,25,257.67c7.45-6.45,1.27-23.08,6-27.34s14.44-3.33,15.43-1.66c-2.57-7-4.76-14.67-3.09-17.67s7.63-21,20-29c-5.28,9.14-14.46,31.42-10.42,41.33,3.75-5.2,21.08-10.07,28.75-2.53s8.18,28.61,0,38.74-29.57,20.79-35.24,19.29C29.62,272.13,22.21,266.62,14.35,257.67Z"/><path class="cls-7" d="M52.93,223.33c11.42-17.58,23.79-10.08,34-33.33a14.43,14.43,0,0,1,0,10.5c17.18-7.49,40.24-40.08,32.46-70.75,7,9.66,13.25,40,9.25,54.25s-22,24.25-25.5,30-15.48,14.75-15.48,14.75C81.7,218.15,64.84,220.63,52.93,223.33Z"/><path class="cls-7" d="M59.35,176s18.68,2.11,28.27-2.75S102.35,152.5,102.35,147c-2.79,7.5-12.25,12.63-12.25,12.63a31.53,31.53,0,0,1-12.25,7.77c-7.52,2.51-15.5,4.85-15.5,4.85Z"/><path class="cls-7" d="M52.93,104.75s4.62-4.63,3.56-10.94C54.81,99,51.23,100,49.63,100s-7.88-10-7.88-10,6.79-6.42,4.69-10.7c-2.11,4.37-7.85,8.25-7.85,8.25l-6.73-9.32s8-3.68,6.73-7.18c-2.49,0,26,25.45,26,25.45l5.73,9.3s0,5.5-8.58,10.86C55.08,109.11,52.93,104.75,52.93,104.75Z"/><path class="cls-7" d="M130.85,170.5c8.84-4.72-11.5-33.52-11.5-40.75,32.5,29.55,60.5,77,48,118.11-3-8.5-11.5-25.86-11.5-25.86s14.52,39.5-9.24,66.5c2.24-35-12.31-87.72-19.26-94.5C133.6,183.15,130.85,170.5,130.85,170.5Z"/><path class="cls-7" d="M213.66,320.55c-16-1.38-44.31,9.95-51.81,32.45.46-8.32-.91-17.83,9.52-28.33-14,0-32,20-32,36.75-23.51,11-95,45.08-100.76,50.08s-4.83,10.29,4.76,33.16C37.36,461.5,28.47,471.47,51,491c9.28,8,13.62,9,13.62,9l9.6-19.72S51.53,438.13,58.07,427.5c15.43-10.5,21.29-12,21.29-12S84.85,399,112.85,391s63.56-24.5,63.56-24.5C183.85,329.5,206.85,324.83,213.66,320.55Z"/><path class="cls-7" d="M273.35,396.5s4-45-17.48-63.5c5.48,11.5,8,34.5,0,46a42.92,42.92,0,0,0-10-28s10.84,40.5-19.49,50.25c-23.91,5.25-33.51-5.75-33.51-5.75-25.5,9-62,12.5-72.5,15-7,16-7,48.3,17.26,71.29a140.47,140.47,0,0,1-4.26-17.29S141.1,477,149.47,475s20.28-13.39,33.83,4.56C177.92,461,171.6,454,171.6,454l-17.25,1-12-6.5-8.5-22.5,37.75,3.5s37.22,21.07,60.75,7S273.35,396.5,273.35,396.5Z"/><path class="cls-6" d="M63.13,233.25a7.28,7.28,0,0,1,2.08.26c-.22,6.13-7.66,13.92-7.66,13.92,5.85-3.31,9.82-6.12,12.14-11.09a11.3,11.3,0,0,1,2.86,9.89c-1.08,4.69-20.27,12.6-29.2,16.25C56.18,254.17,56.83,233.42,63.13,233.25Z"/><path class="cls-7" d="M312.35,230.49l-8-12.36S293.75,234,286.85,237c6.24-27-5.5-58.55-15.5-75.27A29.11,29.11,0,0,1,255.88,182s.28-17.54-3.7-31.54a37.83,37.83,0,0,0-4.83-11.05,62.6,62.6,0,0,1-2.86,14.36,32.13,32.13,0,0,1-3.64,8s-.58-2.25-1.51-5.56c-1-3.47-2.34-8.12-3.83-12.58-2.06-6.22-4.36-12.06-6.16-13.84-.25,3.57.8,10.16-.29,17a24.75,24.75,0,0,1-5.77,12.86l-.68-.94a71.55,71.55,0,0,0-1.55-7.7c-1.86-7.31-5.68-18-12.9-23.8-.76-.61-1.62-1.26-2.56-1.92-3.38-2.41-7.79-5.12-12.48-7.84-13.5-7.79-29.37-15.55-30.08-15.9a142,142,0,0,1,24.26,19.37,91.28,91.28,0,0,1,8.55,10c7.77,10.62,10.79,20.31,11.4,28.18a37.47,37.47,0,0,1-.51,9.85c-9.17-7.85-20.38-16.28-28.82-18.92,4.53,4.26,15,16.68,24.69,28.57l-.15.15h0c.43.38.84.8,1.26,1.2,4.77,5.84,9.31,11.48,12.82,15.86,18.38,28.71,27.58,72.52,16.82,97.72,11.25-1.75,23.57-21.64,22.25-38.5-1-13-6.2-29.15-9.33-38,65.31,64.21,70.82,109.57,72.58,114-8.86-12.3-40.13-41.57-41.11-42.48.56,1,25.2,44.29,33.45,64.1,16.59-23.4,29.82-47.49,39.16-70.87Z"/><path class="cls-7" d="M104.85,115.25c7.56-1.92,17.75-5.5,20.25-11,6,2.5,19.5,15.48,15.75,25.5,7.68-9.27.64-32.2-17.68-39.75,0-4-1.82-19-1.82-19s-37,25.86-24.5,47.66c2-9.61,9-19.41,9-19.41Z"/><path class="cls-10" d="M42.15,75.53S40.72,50,47.43,41.67c0,7.66,4.15,22.08,16.72,29.37-8.22-17.37-10-56.5-10-56.5C33.7,32.94,32.1,50.87,42.15,75.53Z"/><path class="cls-10" d="M59,63.33S53.4,22,85.21,11s34.14-6.67,34.14-6.67S89,34.5,80.85,50.33c0-8.33,3.12-24.2,13.42-32C76.72,20.33,60.7,45.4,59,63.33Z"/><path class="cls-10" d="M96.43,31.25c13.92-3.4,40.17-6.5,59.58.42-22,4-35.5,12.5-39.91,19.83,22.25-10,49.15-13.35,62.2-2.83s28.17,31,50.77,10.52c0,7.48,2.06,13.14,0,19.48,12.17,3.51,16.61,0,16.61,0S247,46.33,227.35,38.33c-.2,10.87-12.34,18-22.34,15.33S177.92,32,177.92,32,176.64,13.76,134,17.33C110.35,16.87,96.43,31.25,96.43,31.25Z"/><path class="cls-10" d="M185,65.35c4,9.62,12,23.51,26.19,26s27.22-4.11,34.54,0,29.65,11.62,40,2.48c3.67,4.19-5.67,19.52-13.33,17.86-21-5.42-15.9-5.11-37-5.34C258.28,114,276,124.67,282,134s15.09,27.73,36,25.63c-2.33,5.7-6.33,8.58-16.33,7.77,3,4.93,11.33,11.85,19.33,11.85C316.35,182,304,182,304,182s20.09,20,22.66,34.83c6.09,16.26,12.44,19.28,12.44,19.28s7.57-29.36-11.1-47.78c14.67-6.33,16.67-8.83,16.67-8.83l-18.33-9.59s22.59-12.47,13-26.91c-17,4-22.17,4.06-33.6-4.59s-20.4-21.8-20.4-21.8S311,104,294.35,71c-12.67,11.45-20.64,13.93-38.66,9.23s-40.34,2.23-45.68,0S185,65.35,185,65.35Z"/><path class="cls-6" d="M122.68,359.33c-3.33-22,3.74-55.76,13.85-70.83,0,11.5,7.39,28.83,7.39,28.83s26.87-31.74,23.43-54.85c9.06,21.52-7.7,56.19-22.6,70.52S122.68,359.33,122.68,359.33Z"/><path class="cls-6" d="M109.35,403.5c-9.79,1-22.42,15.5-18,25.5s18,31,18,31l-9.27-28.25s9.27-6,9.27-13.75S119.13,402.5,109.35,403.5Z"/><path class="cls-4" d="M202.45,178.72c23,30.43,31.07,54.28,33.05,70.06,1,8.16,1.24,19.86,1.95,24.65A36.26,36.26,0,0,0,242.6,251C238.77,208.08,204,179.8,202.45,178.72Z"/><path class="cls-4" d="M31.75,226.36c-4.55,2.11-3.34,11-2.69,17.42l.87-1c1.05-9.11,2.61-14.13,7.43-14.68C37.36,228.06,36.31,224.25,31.75,226.36Z"/><path class="cls-11" d="M89,171.76c-5.34,2.68-13.63,3.57-18.63,4.73,6.25,2.45,15.41,1.12,20.33-1.44,6.45-3.29,9.13-10.84,9.42-18C96.6,163,94.86,168.8,89,171.76Z"/><path class="cls-4" d="M330.7,249.06c.8-2.81,2.8-7,1.83-14.65a38.18,38.18,0,0,1,4.23,14.07c18.63-22.62.3-55-2.31-57.27,7.13-2,12-7.79,17-16-7,.22-11.12-.19-17.36-2.41,12.64-6.58,9.86-24.56,7.49-34.59-7.47,5.18-19.82,3.83-27.73-1-9.53-5.84-11.06-13.17-22.68-20.46a18.42,18.42,0,0,0,8.55-6.72,27.21,27.21,0,0,0,4.4-11.37c1.88-11.36-1.47-25.19-8.74-34.25-14.15,19.16-42.7,11.83-44.71,11.34,1.74-12.45-7.29-43-28.52-43.38,2.1,16.93-10.78,22.11-22.74,13.25-4.61-10.1-11.1-19.57-20.58-25.22C167.93,13.89,153.63,12.6,141.2,13c-10.16.29-19.94,3.06-27.85,5.82C115.79,11.91,125,5,126.65,4.32c-24-12.19-64.23,2.6-69.46,29.76-1-13.26-.76-24.53-.39-25.95C32.51,18.31,31.9,50.35,32.19,61.79L3.07,34.06l29.68,68.55c-.77,2.19-1.81,4.8-3,7.56-2,4.62-4.25,9.68-6.18,14.09a82.12,82.12,0,0,0-4.15,10.46c-1.14,5.21,6.86,24.27,6,30.94a165.86,165.86,0,0,1-3.85,19.52c-2.28,9.13-5.11,18.26-7.59,25.27-1.08,3.06-2.11,5.72-3,7.79C1,226.41.78,239.81.66,246.08c-.2,10.44,15.74,22.33,21.94,26.11,1,.6,2.16,1.28,3.43,2a100,100,0,0,0,13.57,6.42A31.1,31.1,0,0,0,49,282.79c9.75.19,33.71-14.17,36.92-18.28s6.15-26.6,9.52-34.58c5.78-13.73,10-8,28.44-29.09,3.67,7.08,11.84,24.91,16.22,50.56-22.76,21.87-30.86,50.48-31.67,75.89a76.89,76.89,0,0,0-6.52,7.27,98.44,98.44,0,0,0-12.3,19.55c-4.37,9.28-15.35,15.34-27.39,20.39-3.73,1.56-7.57,3-11.34,4.47-5.56,2.13-11,4.19-15.75,6.39-15.89,7.37-22.44,16.58-25.11,27.08-2.09,8.25,2.42,20.31,4.45,25.11-1.15,9.3-4.18,36.14-1.62,42.84,3.12,8.16,3.87,9.93,14.76,23.16C31.52,524,41.5,551.31,61.3,557.66c17.36-2.74,28.19-48.35,28.49-66.17l-1.42-3.08S68.15,466.32,67.24,458.9s.22-12.75-5.44-29.29a73.11,73.11,0,0,1,12.55-4.39c.57,4.84,2.71,12.89,9.82,23C96.1,465.15,103.51,497,111.42,502s23,.43,23,.43,41.46,36.31,80.51,16.15c1.51-9.37-1.81-24.12-6.07-37.23-1.33-4.11-2.77-8.05-4.17-11.63-3.41-8.68-6.66-15.13-8-16.3,0,0-11.54-7.16-37.24-1.9-1.7-1.77-9.16-3.48-12-3.88-2.36-4.57-6.84-17.23-4.65-18.55,2.34-1.41,15.36,1,24,2.9,9.6,2.1,20.61,14.31,41.14,14.69,22,.42,54.49-15.33,64.78-35,11.57-22.07,7.64-53.83-8.49-66.33,10.85,23.22,8,42.78-1.13,57.57-13.64,21.95-39.12,31.37-54.46,31.08a69.11,69.11,0,0,1-33-9.52S133,414,130.2,423.65c-1.25,4.38,1.08,11.81,4,18.65a148,148,0,0,0,8,15.7s10.17-.5,11.08,6.83a28.44,28.44,0,0,1,8.41-4.87,32,32,0,0,1,5.77-1.54A21.77,21.77,0,0,1,175.76,469c1.74,4.87,1.57,10.1.8,15-.89,5.69-2.61,10.92-3.07,14.65a13.76,13.76,0,0,0,2.7,10.14c-12.95-2.54-27.21-8-34.67-17.36-19.48,1.32-23.05,6.17-29.3-13.1S92,439.49,86.28,431.53a12.43,12.43,0,0,1-1.85-8.69,26.08,26.08,0,0,1,4.88-12,29.73,29.73,0,0,1,12.18-10.06c13.7-6,69.35-20.29,77.57-31.27s4.48-34.4,44.47-49.32c-11.43-3.71-44.48,12.74-52.69,41.85-15.52,10.15-55.16,21.68-65.95,24.87a50.51,50.51,0,0,0-24,15.25A36.51,36.51,0,0,0,74.28,413c0,.11-.09.22-.12.33-8.82,3.11-23.19,8.1-23.32,15-.15,7.73,5.35,18.91,5,34.93-.08,4.12,6.9,12.76,13.42,19.94C67.82,498.56,51,504.49,44.16,509.62A13.78,13.78,0,0,0,39.81,515a86.85,86.85,0,0,1-3.23-16.56c-8.61-11.77-11.76-15-13.35-20-1.18-3.72.54-23.86,1.59-35,1.28-.15,4.07,1.81,9.58,4.87C27.16,437.09,18,424.42,21.66,413c2.62-8,8.68-11.09,19.16-16.88,3.07-1.7,8.88-4.08,15.69-6.86,3.59-1.47,7.45-3.06,11.34-4.73,13.85-5.92,28-12.83,31.06-19,4.64-9.44,8-14,10.41-18a115.62,115.62,0,0,0,5.27,23.93c-.63-56,19.71-91.09,27.74-102.73a207.66,207.66,0,0,1,0,33.59c13.13-12.29,11.85-73.75-11.11-112.61,8.5-18.5.47-37-6-44.1,2.92,13.14,5.31,23,.18,35.27a38.12,38.12,0,0,0-2.63-18.15c-.1-.28-.51-.09-.45.18,1.91,8.17.82,16.46-2,24.31-.93,2.54-2,5.06-3.18,7.5-7.87,9.66-20.4,12.7-26.85,24.16-4.85-2.08-15.56-5.9-23.26-2.8A23.49,23.49,0,0,0,61,219a13.09,13.09,0,0,0-4.19,4.35c2.46-2.75,10-5,16-4.91,1,.07,6.17.78,9,7.44,0,.14-.07.26-.08.31l.12-.24c1.38,3.34,2.17,8.17,1.58,15.13-1.65,6.87-3.25,13.08-5.6,15.93-4.46,5.44-19.08,14.17-26.94,15.68a18,18,0,0,1-10.07-1.25,48.17,48.17,0,0,1,9-5.73c16-7.71,24.2-12.42,26.52-16.74,3.16-5.86-3-15.56-10-19.61,2.8-.86,5.92.11,8.2.68-3.19-3.59-12.34-5.59-15.8-2.24-8.44,8.17-8.35,26.35-22.86,32.39a48.8,48.8,0,0,1-11.7,3.1l-.08-.06C16,257.62,11,249.89,10.42,243.75c-.65-6.5.66-15,6.12-20A14.5,14.5,0,0,1,18.85,222c1.79-4.3,4-11,6.27-18.31,4.75-15.58,9.51-33.91,9.94-37.81.63-5.73-6.38-21.12-5.73-28.32.33-3.82,4.57-11.6,7.52-16.61,1-1.67,1.82-3,2.32-3.84L40.44,120l1.18,2.71a8.1,8.1,0,0,0,.74.73c-3.66,9-4,20.44-1.75,29.52.53-5.75,1-11.42,2.6-17,1-3.53,2.28-6.93,3.55-10.36,3.55.77,9.13.24,17.35-4.91a20.23,20.23,0,0,0,8-8.66,2.29,2.29,0,0,1,.1-.23l6-6.87a20.22,20.22,0,0,0,1.85,4.82c0-3.42,1.81-8.6,4.24-13.32.71-1.39,1.48-2.74,2.26-4C93.09,82,105.55,78.86,113.47,75c-3.14,2.93-6.46,5.71-9.52,8.73a34.72,34.72,0,0,0-7.06,9.52,24.59,24.59,0,0,0-2.38,13.13l0,.54c.08-.2.16-.41.23-.61a49.84,49.84,0,0,1,8.59-14.69,63.19,63.19,0,0,1,8.46-8.26c2-1.66,5-3.87,7.55-6.41a86.87,86.87,0,0,1-2.13,11.16,28.75,28.75,0,0,1-4.61,9.61c-1.3,1.72-2.8,3.42-4.25,5.15-4.85,5.79-9.05,11.82-2.36,19.28-2.39-6.45,6.33-12.62,10-16.66a37.16,37.16,0,0,0,4.28-5.63,41.7,41.7,0,0,0,3.29-6.5,37.87,37.87,0,0,1,5.72,4.23c12.49,11.1,18.83,30.06,4.93,33.93,6.81,3.87,35.37,6.09,31.14-26.23,8.24,5.09,17,9.38,25.69,14.28,35.43,20,26.15,43.21,23.16,46.09,8.12-.2,17.7-6.34,17.42-25.61,0,.05.05.11.07.17,6.41,18.9,6.47,29.68,6.47,29.68,5.06-4.46,10.63-10.27,11.36-21.22.36,1.83,5.54,19.92,4.33,38.22,3.56-1.2,12.8-3.27,18.11-17.5,1.67,5,6.91,15.64,10.25,27.41,2.22,7.81,3.87,16.16,3.53,24.32-.58,13.41-7,20-7.51,21.52.46.07,15.42,1.28,24.57-14.22,9,16.26,23.08,41.2,44.56,64.36.7.76,1.77,1.86,3,3.08,1.51-4.9,3.08-9.78,4.75-14.63C347.36,274.15,338.61,263.77,330.7,249.06ZM176.41,458a48.7,48.7,0,0,1,10.92,2c1.77,4.22,4.15,10,6.54,16.07,1.5,3.82,3,7.76,4.35,11.54,3.57,9.93,6.16,18.66,5,20.67s-7.78,2.72-16.58,2c-5.28-7.53-5.12-13.13-4-22.34.15-1.28.33-2.64.51-4.08a30.76,30.76,0,0,0-.78-10.54A66.28,66.28,0,0,0,176.41,458ZM61.71,506.24c5.79-4.35,9.77-12,12.22-18.1,2.33,2.42,4.3,4.38,5.43,5.49C78.2,509.07,73.85,538,57.6,545.28c-5-2-9.38-8.66-12.86-16.51C46.54,517.26,51.72,513.77,61.71,506.24Zm1.42-273a7.28,7.28,0,0,1,2.08.26c-.22,6.13-7.66,13.92-7.66,13.92,5.85-3.31,9.82-6.12,12.14-11.09a11.3,11.3,0,0,1,2.86,9.89c-1.08,4.69-20.27,12.6-29.2,16.25C56.18,254.17,56.83,233.42,63.13,233.25Zm-2.24-118.4c-3.65,2.81-8.58,4.5-12.23,3.54l-.19-.41-5.39-11.17-23-47.62L35.44,74.64c-.83,1.49-1.93,3.15-3.58,3.54a5.15,5.15,0,0,0,5.23-1.88l7.24,7.32c-1.48,3.3-3.91,7.36-7.66,8,4.81,1.38,8.49-1.68,10.2-5.42l9.22,9.31c-1,3.6-3,8-7.9,10a14.76,14.76,0,0,1-3.68,1c5.48,1.3,9.41-.33,11.9-3a12.68,12.68,0,0,0,2.72-4.89l3.33,3.35,3.17,3.21C66.68,108.51,64.36,112.19,60.89,114.85Zm265,124.51c-2.92-2.77-14-15.63-18.72-21.83,2.29-7.15,1.88-12.09.31-19.37-2,12-10.58,25.78-15,31.31,2-7.48,1.22-15.52,0-23.05a111.18,111.18,0,0,0-7.33-24.56c-7.29-17.8-7.29-17.8-13.59-33.28-3.65,14.79-6.77,21.69-11.63,27.67A58.87,58.87,0,0,0,259,162.1c-.35-1.95-3.36-17.11-17.57-37.49,1.25,9.45,5,20.65.54,31.22-.3-7.92-5.52-30.85-21.36-40,4.43,7.64,8.33,31.58,3,37.71.52-13.2-8.67-25.36-18.69-33.37-7.4-5.91-48.36-28.76-48.5-28.76.07.1,7.63,33.09-8.92,35.7,3.55-8-1.67-22.26-10.06-31.55-3.54-3.93-7.65-7-11.91-8.29.09-.43.17-.86.24-1.3,1.38-7.78.84-16.82-1.79-23.67C116.81,70,98.78,70.33,89,78.81,84.74,82.44,80.28,88,78.47,94.36l-3.12,4.31-2.3,3.17a5,5,0,0,0-.7-1.81l-.5-.48L45.41,74.37c-6.15-11.7-7.83-39.94,5.36-52.51C50.18,29.31,50.69,65,64.15,71c-9.33-22,.58-62.95,47.37-63.2-8.57,6.39-15.13,16.85-18,23.85a67.57,67.57,0,0,0-8.18,11c3.38-2,14.32-20.59,55.37-20.71,10.9,0,22.74,1.19,32.4,6.69-16.6-4.11-34.29,5-48.07,14.27,9.72-3.12,23.84-12.47,43.73-8.58,13.36,2.61,18.85,14.92,29.88,21.28,9,5.18,21.78,4.8,27.67-4.88a14.58,14.58,0,0,0,2.11-8A47.66,47.66,0,0,1,235,51.55,38.32,38.32,0,0,1,239.89,75a64.23,64.23,0,0,0-14.06.66c-5,.61-10,1.21-15,.64A51,51,0,0,1,191,69.48,55.94,55.94,0,0,1,185,65.36a44.41,44.41,0,0,0,3.75,4.7,38.51,38.51,0,0,0,18.81,11.48c11.73,3.16,23.17-1.24,34.89.83,7.57,1.33,16.24,4.7,25.11,5.55,6.84.65,13.79-.2,20.44-4.62a22.91,22.91,0,0,0,6.65-7.06,32.89,32.89,0,0,1,.83,19.86l-.3,1A24.42,24.42,0,0,1,289.6,107l-.29.3c-2.53,2.49-5.59,3.34-8.47,5.06-9.68-4-20.51-5.36-31-6,9.42,3,19.08,6,28,10.26s14.92,11,21.16,18.5c5.19,6.26,11.24,11.93,19.37,13.86a30.38,30.38,0,0,0,16.86-.82c1.46,8.15-6.1,21.44-16.63,23.2a71.68,71.68,0,0,0,16.33,7.71c-4,3.61-13.55,6.29-19.7,6.61,14.77,7.74,22.19,28.36,21.86,45.11-2.36-5.12-5.09-11-11.28-15.47C327.57,222.55,327.25,231.29,325.93,239.36Z"/><path class="cls-4" d="M91.58,156c-.66-3.62-2-7.62-4.54-10.32a29.78,29.78,0,0,1,12.52-5.12c-11.16-2.68-18.66,1.54-27.16,9.8-5.31,5.16-11.63,18.13-12.92,21.93-1.53,4.5-12,.82-12,.82,2.18,2.76,6.71,6.28,11.53,6.37,3.61.07,3.7-1.87,5.36-5.31,9.83-4.51,20.46-4.57,24.48-7.86C91.92,163.8,92.25,160,91.58,156Zm-25,13.9c3.44-6.18,9.14-14.86,16.58-21.22,2,1.75,3.18,5.67,3.58,8.15C88.28,166.32,79.83,162.94,66.54,169.91Z"/><path class="cls-4" d="M31.12,214.17c-9.62,7.05-9.52,24.79-5.55,31-1.05-8.38,1.18-25.87,9.19-26,5.24-.11,7.89,1.49,9.11,2.61l.88,1.05a6.57,6.57,0,0,0-.12-2.43c-.1-10.26,5.85-19.49,9.52-29.17a95.57,95.57,0,0,0-14.9,21.91C37,211.93,34.18,211.93,31.12,214.17Z"/></g></g></svg>