<?xml version="1.0" encoding="UTF-8"?>
<svg width="200px" height="200px" viewBox="0 0 200 200" version="1.1" xmlns="http://www.w3.org/2000/svg" xmlns:xlink="http://www.w3.org/1999/xlink">
    <!-- Generator: Sketch 63.1 (92452) - https://sketch.com -->
    <title>biglogo</title>
    <desc>Created with Sketch.</desc>
    <g id="biglogo" stroke="none" stroke-width="1" fill="none" fill-rule="evenodd">
        <g id="Group" transform="translate(21.000000, 9.000000)">
            <path d="M160.25001,127.519902 C160.25001,157.703029 135.414727,182.171288 104.778852,182.171288 L2.33185293e-12,182.171288 L2.33185293e-12,145.73703 L104.778852,145.73703 C114.990811,145.73703 123.269238,137.580944 123.269238,127.519902 C123.269238,117.458859 114.990811,109.302773 104.778852,109.302773 L67.798081,109.302773 L67.798081,72.8685152 L104.778852,72.8685152 C114.990811,72.8685152 123.269238,64.7124288 123.269238,54.6513864 C123.269238,44.590344 114.990811,36.4342576 104.778852,36.4342576 L2.33185293e-12,36.4342576 L2.33185293e-12,6.98130291e-11 L104.778852,6.98130291e-11 C135.414727,6.98130291e-11 160.25001,24.4682591 160.25001,54.6513864 C160.25001,68.6485981 154.908996,81.4167846 146.125324,91.085644 C154.908996,100.754503 160.25001,113.52269 160.25001,127.519902 Z" id="Path" fill="#FE815F" opacity="0.800000012"></path>
            <path d="M1.22193166e-13,145.73703 L89.9942176,145.73703 C70.8782311,167.860762 40.4432849,182.171288 6.16346191,182.171288 C4.09441984,182.171288 2.03938472,182.119154 1.22193166e-13,182.016316 L1.22193166e-13,145.73703 L1.22193166e-13,145.73703 Z M108.846358,109.302773 L73.9615429,109.302773 L73.9615429,72.8685152 L108.846358,72.8685152 C110.220802,78.7546506 110.942314,84.8468997 110.942314,91.085644 C110.942314,97.3243883 110.220802,103.416637 108.846358,109.302773 Z M89.9942176,36.4342576 L6.63787005e-12,36.4342576 L6.63787005e-12,0.154971922 C2.03938472,0.0521335245 4.09441984,0 6.16346191,0 C40.4432849,0 70.8782311,14.3105256 89.9942176,36.4342576 L89.9942176,36.4342576 Z" id="Shape" fill="#000000" fill-rule="nonzero" opacity="0.119999997"></path>
            <path d="M2.12819765e-12,6.98944912e-11 C51.0597903,6.98944912e-11 92.4519287,40.7804319 92.4519287,91.085644 C92.4519287,141.390856 51.0597903,182.171288 2.12819765e-12,182.171288 L2.12819765e-12,145.73703 C30.6358742,145.73703 55.4711572,121.268771 55.4711572,91.085644 C55.4711572,60.9025167 30.6358742,36.4342576 2.12819765e-12,36.4342576 L2.12819765e-12,6.98944912e-11 Z" id="Path" fill="#FF6238" fill-rule="nonzero"></path>
        </g>
    </g>
</svg>