<?xml version="1.0" encoding="UTF-8" standalone="no"?>
<svg
   xmlns:dc="http://purl.org/dc/elements/1.1/"
   xmlns:cc="http://creativecommons.org/ns#"
   xmlns:rdf="http://www.w3.org/1999/02/22-rdf-syntax-ns#"
   xmlns:svg="http://www.w3.org/2000/svg"
   xmlns="http://www.w3.org/2000/svg"
   xmlns:sodipodi="http://sodipodi.sourceforge.net/DTD/sodipodi-0.dtd"
   xmlns:inkscape="http://www.inkscape.org/namespaces/inkscape"
   width="51.695908"
   height="52.111965"
   viewBox="0 0 51.695908 52.111965"
   version="1.1"
   id="svg11"
   sodipodi:docname="dexag.svg"
   inkscape:version="0.92.4 (0.92.4+202003022015+8da6682)">
  <metadata
     id="metadata17">
    <rdf:RDF>
      <cc:Work
         rdf:about="">
        <dc:format>image/svg+xml</dc:format>
        <dc:type
           rdf:resource="http://purl.org/dc/dcmitype/StillImage" />
        <dc:title>Group</dc:title>
      </cc:Work>
    </rdf:RDF>
  </metadata>
  <defs
     id="defs15">
    <clipPath
       clipPathUnits="userSpaceOnUse"
       id="clipPath826">
      <rect
         style="fill:none;fill-opacity:1"
         id="rect828"
         width="56.666668"
         height="70.087723"
         x="-4.9707603"
         y="-8.1403513" />
    </clipPath>
  </defs>
  <sodipodi:namedview
     pagecolor="#ffffff"
     bordercolor="#666666"
     borderopacity="1"
     objecttolerance="10"
     gridtolerance="10"
     guidetolerance="10"
     inkscape:pageopacity="0"
     inkscape:pageshadow="2"
     inkscape:window-width="1373"
     inkscape:window-height="845"
     id="namedview13"
     showgrid="false"
     inkscape:zoom="2.0117647"
     inkscape:cx="58.816034"
     inkscape:cy="25.611964"
     inkscape:window-x="67"
     inkscape:window-y="27"
     inkscape:window-maximized="1"
     inkscape:current-layer="svg11"
     fit-margin-top="0"
     fit-margin-left="0"
     fit-margin-right="0"
     fit-margin-bottom="0" />
  <!-- Generator: Sketch 53 (72520) - https://sketchapp.com -->
  <title
     id="title2">Group</title>
  <desc
     id="desc4">Created with Sketch.</desc>
  <g
     id="newsite"
     clip-path="url(#clipPath826)"
     style="fill:none;fill-rule:evenodd;stroke:none;stroke-width:1">
    <g
       id="Desktop"
       transform="translate(-112,-40)"
       style="fill:#fca060">
      <g
         id="Group"
         transform="translate(112,40)">
        <path
           d="m 23.907438,27.26698 10.234883,18.594674 h 2.343867 L 25.079371,25.1575 35.470512,6.2503105 H 33.126646 L 23.907438,23.04802 14.68823,6.2503105 H 12.344363 L 22.735505,25.1575 11.328688,45.861654 h 2.343866 z M 14.844488,25.1575 1.0156755,0 H 19.219705 L 23.907438,8.5160481 28.595171,0 H 46.877329 L 33.048517,25.1575 47.893005,52.111964 H 29.688975 L 23.907438,41.720823 18.204029,52.111964 H 0 Z"
           id="X"
           inkscape:connector-curvature="0" />
        <path
           d="M 57.893005,37.621745 V 14.455487 h 6.425423 c 2.176551,0 4.115736,0.243122 5.817613,0.729373 1.701878,0.486251 3.137454,1.215616 4.306771,2.188117 1.169317,0.972501 2.060763,2.182321 2.674365,3.629496 0.613602,1.447175 0.920399,3.120084 0.920399,5.018777 0,1.898693 -0.306797,3.571602 -0.920399,5.018777 -0.613602,1.447175 -1.505048,2.656994 -2.674365,3.629496 -1.169317,0.972501 -2.604893,1.707655 -4.306771,2.205483 -1.701877,0.497828 -3.641062,0.746739 -5.817613,0.746739 z m 7.39792,-6.599084 c 1.736609,0 3.079567,-0.410992 4.028914,-1.232987 0.949347,-0.821995 1.424013,-2.078124 1.424013,-3.768424 0,-1.6903 -0.474666,-2.94064 -1.424013,-3.751058 -0.949347,-0.810418 -2.292305,-1.215621 -4.028914,-1.215621 z M 79.947837,14.455487 h 13.649684 v 6.078104 h -6.251764 v 2.570169 h 6.147568 v 5.765516 h -6.147568 v 2.674365 h 6.494888 v 6.078104 H 79.947837 Z M 100.61339,25.639198 94.465821,14.455487 h 8.092559 l 2.08392,3.785791 2.08392,-3.785791 h 8.1273 l -6.14757,11.183711 6.59908,11.982547 h -8.09256 l -2.57017,-4.619359 -2.53543,4.619359 h -8.092565 z m 15.03896,6.182299 h 7.43266 v 5.800248 h -7.43266 z m 16.56718,-17.36601 h 5.55712 l 8.7872,23.166258 h -7.29372 l -0.76411,-2.083922 h -7.01587 l -0.7641,2.083922 h -7.29372 z m 4.3415,15.976729 -1.56294,-4.063646 -1.56294,4.063646 z m 25.28491,-8.09256 c -0.41679,-0.370477 -0.93776,-0.654119 -1.56294,-0.850935 -0.62518,-0.196815 -1.23877,-0.295222 -1.8408,-0.295222 -0.67149,0 -1.28508,0.121561 -1.8408,0.364686 -0.55571,0.243126 -1.03617,0.578865 -1.44137,1.007229 -0.40521,0.428364 -0.72359,0.94355 -0.95514,1.545575 -0.23154,0.602025 -0.34732,1.250349 -0.34732,1.944993 0,0.694644 0.12735,1.342969 0.38206,1.944993 0.2547,0.602025 0.60202,1.117211 1.04196,1.545575 0.43994,0.428364 0.95512,0.764103 1.54557,1.007229 0.59045,0.243125 1.22141,0.364686 1.8929,0.364686 0.78726,0 1.50505,-0.16787 2.15338,-0.503615 0.64834,-0.335744 1.20404,-0.793044 1.66714,-1.371914 h -2.08392 v -4.862483 h 8.92613 v 7.710508 c -0.53256,0.949347 -1.16931,1.81185 -1.91026,2.587536 -0.74096,0.775685 -1.56873,1.441376 -2.48334,1.997091 -0.91462,0.555715 -1.90447,0.984072 -2.96959,1.285085 -1.06512,0.301012 -2.16496,0.451516 -3.29954,0.451516 -1.66715,0 -3.24165,-0.312585 -4.72356,-0.937765 -1.4819,-0.625179 -2.77276,-1.481894 -3.87262,-2.570169 -1.09985,-1.088275 -1.96814,-2.373347 -2.6049,-3.855254 -0.63676,-1.481907 -0.95513,-3.079564 -0.95513,-4.793019 0,-1.667145 0.30101,-3.241648 0.90303,-4.723555 0.60203,-1.481907 1.4298,-2.772767 2.48334,-3.87262 1.05355,-1.099853 2.30389,-1.968144 3.75106,-2.604901 1.44718,-0.636757 3.00431,-0.955131 4.67146,-0.955131 1.29667,0 2.41966,0.12735 3.369,0.382052 0.94935,0.254703 1.74818,0.544134 2.39651,0.868301 0.76411,0.370477 1.40086,0.775679 1.91026,1.21562 z"
           id="Dex.Ag"
           inkscape:connector-curvature="0" />
      </g>
    </g>
  </g>
</svg>
