<svg xmlns="http://www.w3.org/2000/svg" width="66" height="32" viewBox="0 0 66 32">
  <path fill="#FFF" fill-rule="evenodd" d="M40.9409102,0 L25.5636577,32 L24.4247811,32 L39.8020335,0 L40.9409102,0 Z M42.927057,10.59314 C42.927057,9.69707031 43.2688666,8.96838512 43.951187,8.40809229 C44.6531102,7.8480487 45.5539334,7.56790771 46.654163,7.56790771 C47.3754358,7.56790771 48.0678272,7.6425838 48.7313154,7.79192514 C49.4144173,7.94126649 50.210755,8.23056454 51.1213741,8.66055621 L50.6095677,9.61274951 C49.7750482,9.20179802 49.0635713,8.9125108 48.4756654,8.74436768 C47.8872421,8.59502634 47.2897935,8.52035025 46.6830553,8.52035025 C45.867368,8.52035025 45.2314734,8.7072843 44.776417,9.08064308 C44.3025283,9.45400186 44.0652043,9.9490249 44.0652043,10.565192 C44.0652043,11.1628175 44.2545506,11.6763822 44.6342779,12.1058754 C45.0325843,12.5168269 45.9145643,13.1142031 47.280504,13.8985134 C48.5135831,14.6084076 49.4048636,15.2151793 49.955105,15.7193377 C50.5241786,16.2422979 50.9413173,16.8025908 51.2070164,17.4002162 C51.4531127,17.9978417 51.5766836,18.7168822 51.5766836,19.5573268 C51.5766836,21.2194144 51.1120845,22.5358311 50.1828863,23.5070754 C49.2531708,24.4595288 47.9532817,24.9355008 46.2847489,24.9355008 C44.6724598,24.9355008 43.3821024,24.4780705 42.4147333,23.5634699 C41.4661855,22.6666416 40.9920437,21.4624937 40.9920437,19.9489889 C40.9920437,18.5297097 41.3998928,17.3723007 42.2158442,16.4759818 C43.0121929,15.5608718 44.2924793,14.879164 46.0567144,14.4308799 C44.8809025,13.7773693 44.0652043,13.160942 43.6101589,12.5818583 C43.154321,11.9844712 42.927057,11.3215652 42.927057,10.59314 Z M55.619172,8.72574725 L60.0022933,15.5594175 L64.4424456,8.72574725 L65.6666091,8.72574725 L60.6288309,16.3715027 L66.0645161,24.7173571 L64.7838501,24.7173571 L59.9739209,17.2678919 L55.078324,24.7173571 L53.8265588,24.7173571 L59.2908916,16.3715027 L54.3385169,8.72574725 L55.619172,8.72574725 Z M44.538676,15.8300625 C43.9689594,16.1099353 43.5128711,16.4458757 43.1711932,16.8373858 C42.8289974,17.2106326 42.5725517,17.6587192 42.401845,18.1806497 C42.2120203,18.703089 42.1169813,19.2907331 42.1169813,19.9433329 C42.1169813,21.1566852 42.4968841,22.1264533 43.2564143,22.8544127 C44.0156911,23.5813545 45.0321959,23.9454641 46.3043752,23.9454641 C47.6145149,23.9454641 48.6310198,23.5727262 49.3520826,22.8259946 C50.0741702,22.0607289 50.4347016,20.9605404 50.4347016,19.5241625 C50.4347016,18.5538856 50.1686913,17.7145378 49.6369463,17.0055997 C49.1245618,16.2966723 48.2415744,15.6341667 46.9882488,15.0183534 C45.9056408,15.2797138 45.0895389,15.5502005 44.538676,15.8300625 Z M7.73946784,7.79192514 C8.42232192,7.94126649 9.21868966,8.23056454 10.1295837,8.66055621 L9.61724776,9.61274951 C8.7824441,9.20179802 8.07121435,8.9125108 7.48329437,8.74436768 C6.89537439,8.59502634 6.2976473,8.52035025 5.69064144,8.52035025 C4.87518782,8.52035025 4.23954213,8.7072843 3.78447485,9.08064308 C3.30980436,9.45400186 3.0732451,9.9490249 3.0732451,10.565192 C3.0732451,11.1628175 3.26259598,11.6763822 3.64233236,12.1058754 C4.04038415,12.5168269 4.92264936,13.1142031 6.28835752,13.8985134 C7.52121298,14.6084076 8.41276797,15.2151793 8.96250518,15.7193377 C9.53185661,16.2422979 9.94924743,16.8025908 10.2147107,17.4002162 C10.4613302,17.9978417 10.58464,18.7168822 10.58464,19.5573268 C10.58464,21.2194144 10.1197766,22.5358311 9.19055615,23.5070754 C8.26108255,24.4595288 6.9614155,24.9355008 5.29232549,24.9355008 C3.67999781,24.9355008 2.39012686,24.4780705 1.42272365,23.5634699 C0.474153162,22.6666416 0,21.4624937 0,19.9489889 C0,18.5297097 0.407858893,17.3723007 1.22356567,16.4759818 C2.02018657,15.5608718 3.30050357,14.879164 5.06478084,14.4308799 C3.88867671,13.7773693 3.07322309,13.160942 2.61764949,12.5818583 C2.16232906,11.9844821 1.93479542,11.321576 1.93479542,10.59314 C1.93479542,9.69707031 2.27634903,8.96838512 2.95920311,8.40809229 C3.66114307,7.8480487 4.56198785,7.56790771 5.66224376,7.56790771 C6.38304947,7.56790771 7.07544649,7.64257296 7.73946784,7.79192514 Z M3.56315889,15.8300625 C2.99344236,16.1099353 2.53787188,16.4458757 2.19567613,16.8373858 C1.85399828,17.2106326 1.59755256,17.6587192 1.42684586,18.1806497 C1.23676772,18.703089 1.14198209,19.2907331 1.14198209,19.9433329 C1.14198209,21.1566852 1.52162048,22.1264533 2.28141515,22.8544127 C3.04069193,23.5813545 4.05694333,23.9454641 5.329376,23.9454641 C6.63951576,23.9454641 7.65551373,23.5727262 8.37708341,22.8259946 C9.09865309,22.0607289 9.45970239,20.9605404 9.45970239,19.5241625 C9.45970239,18.5538856 9.19369216,17.7145378 8.66194718,17.0055997 C8.14930919,16.2966723 7.26605739,15.6341667 6.01299617,15.0183534 C4.93063062,15.2797138 4.11376843,15.5502005 3.56315889,15.8300625 Z M24.9531609,8.72574725 L19.543155,18.5284318 L19.543155,24.7173571 L18.3751856,24.7173571 L18.3751856,18.6119774 L12.9367822,8.72574725 L14.2464862,8.72574725 L18.973628,17.4639331 L23.7286496,8.72574725 L24.9531609,8.72574725 Z"/>
</svg>
